<?xml version="1.0" encoding="UTF-8" standalone="no"?>
<!DOCTYPE svg PUBLIC "-//W3C//DTD SVG 1.1//EN"
 "http://www.w3.org/Graphics/SVG/1.1/DTD/svg11.dtd">
<!-- Generated by graphviz version 10.0.1 (20240210.2158)
 -->
<!-- Title: icubaby::ranges::transcode_view&lt; FromEncoding, ToEncoding, View &gt; Pages: 1 -->
<svg width="415pt" height="88pt"
 viewBox="0.00 0.00 415.00 87.50" xmlns="http://www.w3.org/2000/svg" xmlns:xlink="http://www.w3.org/1999/xlink">
<g id="graph0" class="graph" transform="scale(1 1) rotate(0) translate(4 83.5)">
<title>icubaby::ranges::transcode_view&lt; FromEncoding, ToEncoding, View &gt;</title>
<!-- Node1 -->
<g id="Node000001" class="node">
<title>Node1</title>
<g id="a_Node000001"><a xlink:title="A range adaptor for lazily converting between Unicode encodings.">
<polygon fill="#999999" stroke="#666666" points="407,-54.5 233.5,-54.5 233.5,-12.75 407,-12.75 407,-54.5"/>
<text text-anchor="start" x="241.5" y="-41" font-family="Helvetica,sans-Serif" font-size="10.00">icubaby::ranges::transcode</text>
<text text-anchor="start" x="241.5" y="-29.75" font-family="Helvetica,sans-Serif" font-size="10.00">_view&lt; FromEncoding, ToEncoding,</text>
<text text-anchor="middle" x="320.25" y="-18.5" font-family="Helvetica,sans-Serif" font-size="10.00"> View &gt;</text>
</a>
</g>
</g>
<!-- Node2 -->
<g id="Node000002" class="node">
<title>Node2</title>
<g id="a_Node000002"><a xlink:title=" ">
<polygon fill="white" stroke="#bfbfbf" points="168.25,-79.5 0,-79.5 0,-37.75 168.25,-37.75 168.25,-79.5"/>
<text text-anchor="start" x="8" y="-66" font-family="Helvetica,sans-Serif" font-size="10.00">std::ranges::view_interface</text>
<text text-anchor="start" x="8" y="-54.75" font-family="Helvetica,sans-Serif" font-size="10.00">&lt; transcode_view&lt; FromEncoding,</text>
<text text-anchor="middle" x="84.12" y="-43.5" font-family="Helvetica,sans-Serif" font-size="10.00"> ToEncoding, View &gt; &gt;</text>
</a>
</g>
</g>
<!-- Node2&#45;&gt;Node1 -->
<g id="edge1_Node000001_Node000002" class="edge">
<title>Node2&#45;&gt;Node1</title>
<g id="a_edge1_Node000001_Node000002"><a xlink:title=" ">
<path fill="none" stroke="#63b8ff" d="M179.87,-48.51C197.56,-46.62 215.97,-44.65 233.38,-42.79"/>
<polygon fill="#63b8ff" stroke="#63b8ff" points="179.73,-45 170.16,-49.54 180.48,-51.96 179.73,-45"/>
</a>
</g>
</g>
<!-- Node3 -->
<g id="Node000003" class="node">
<title>Node3</title>
<g id="a_Node000003"><a xlink:title=" ">
<polygon fill="white" stroke="#bfbfbf" points="103,-19.25 65.25,-19.25 65.25,0 103,0 103,-19.25"/>
<text text-anchor="middle" x="84.12" y="-5.75" font-family="Helvetica,sans-Serif" font-size="10.00">View</text>
</a>
</g>
</g>
<!-- Node3&#45;&gt;Node1 -->
<g id="edge2_Node000001_Node000003" class="edge">
<title>Node3&#45;&gt;Node1</title>
<g id="a_edge2_Node000001_Node000003"><a xlink:title=" ">
<path fill="none" stroke="#9a32cd" stroke-dasharray="5,2" d="M114.72,-12.66C144.42,-15.7 191.6,-20.54 233.17,-24.8"/>
<polygon fill="#9a32cd" stroke="#9a32cd" points="115.31,-9.2 105,-11.66 114.59,-16.16 115.31,-9.2"/>
</a>
</g>
<text text-anchor="middle" x="200.88" y="-24.38" font-family="Helvetica,sans-Serif" font-size="10.00" fill="grey"> base_</text>
</g>
</g>
</svg>
