<?xml version="1.0" encoding="UTF-8" standalone="no"?>
<!DOCTYPE svg PUBLIC "-//W3C//DTD SVG 1.1//EN"
 "http://www.w3.org/Graphics/SVG/1.1/DTD/svg11.dtd">
<!-- Generated by graphviz version 10.0.1 (20240210.2158)
 -->
<!-- Title: icubaby::transcoder&lt; char16_t, char8 &gt; Pages: 1 -->
<svg width="511pt" height="88pt"
 viewBox="0.00 0.00 510.75 87.50" xmlns="http://www.w3.org/2000/svg" xmlns:xlink="http://www.w3.org/1999/xlink">
<g id="graph0" class="graph" transform="scale(1 1) rotate(0) translate(4 83.5)">
<title>icubaby::transcoder&lt; char16_t, char8 &gt;</title>
<!-- Node1 -->
<g id="Node000001" class="node">
<title>Node1</title>
<g id="a_Node000001"><a xlink:title="Takes a sequence of UTF&#45;16 code units and converts them to UTF&#45;8.">
<polygon fill="#999999" stroke="#666666" points="502.75,-54.5 401.25,-54.5 401.25,-24 502.75,-24 502.75,-54.5"/>
<text text-anchor="start" x="409.25" y="-41" font-family="Helvetica,sans-Serif" font-size="10.00">icubaby::transcoder</text>
<text text-anchor="middle" x="452" y="-29.75" font-family="Helvetica,sans-Serif" font-size="10.00">&lt; char16_t, char8 &gt;</text>
</a>
</g>
</g>
<!-- Node2 -->
<g id="Node000002" class="node">
<title>Node2</title>
<g id="a_Node000002"><a xlink:href="classicubaby_1_1details_1_1triangulator.html" target="_top" xlink:title=" ">
<polygon fill="white" stroke="#666666" points="364.25,-54.5 226,-54.5 226,-24 364.25,-24 364.25,-54.5"/>
<text text-anchor="start" x="234" y="-41" font-family="Helvetica,sans-Serif" font-size="10.00">icubaby::details::triangulator</text>
<text text-anchor="middle" x="295.12" y="-29.75" font-family="Helvetica,sans-Serif" font-size="10.00">&lt; char16_t, char8 &gt;</text>
</a>
</g>
</g>
<!-- Node2&#45;&gt;Node1 -->
<g id="edge1_Node000001_Node000002" class="edge">
<title>Node2&#45;&gt;Node1</title>
<g id="a_edge1_Node000001_Node000002"><a xlink:title=" ">
<path fill="none" stroke="#63b8ff" d="M375.82,-39.25C384.43,-39.25 393.01,-39.25 401.12,-39.25"/>
<polygon fill="#63b8ff" stroke="#63b8ff" points="376.02,-35.75 366.02,-39.25 376.02,-42.75 376.02,-35.75"/>
</a>
</g>
</g>
<!-- Node3 -->
<g id="Node000003" class="node">
<title>Node3</title>
<g id="a_Node000003"><a xlink:href="classicubaby_1_1transcoder.html" target="_top" xlink:title=" ">
<polygon fill="white" stroke="#666666" points="125.5,-79.5 3,-79.5 3,-49 125.5,-49 125.5,-79.5"/>
<text text-anchor="start" x="11" y="-66" font-family="Helvetica,sans-Serif" font-size="10.00">icubaby::transcoder</text>
<text text-anchor="middle" x="64.25" y="-54.75" font-family="Helvetica,sans-Serif" font-size="10.00">&lt; input_type, char32_t &gt;</text>
</a>
</g>
</g>
<!-- Node3&#45;&gt;Node2 -->
<g id="edge2_Node000002_Node000003" class="edge">
<title>Node3&#45;&gt;Node2</title>
<g id="a_edge2_Node000002_Node000003"><a xlink:title=" ">
<path fill="none" stroke="#9a32cd" stroke-dasharray="5,2" d="M137.42,-56.37C165.68,-53.28 197.95,-49.75 225.83,-46.71"/>
<polygon fill="#9a32cd" stroke="#9a32cd" points="137.05,-52.89 127.49,-57.45 137.81,-59.85 137.05,-52.89"/>
</a>
</g>
<text text-anchor="middle" x="177.25" y="-56" font-family="Helvetica,sans-Serif" font-size="10.00" fill="grey"> intermediate_</text>
</g>
<!-- Node4 -->
<g id="Node000004" class="node">
<title>Node4</title>
<g id="a_Node000004"><a xlink:href="classicubaby_1_1transcoder.html" target="_top" xlink:title=" ">
<polygon fill="white" stroke="#666666" points="128.5,-30.5 0,-30.5 0,0 128.5,0 128.5,-30.5"/>
<text text-anchor="start" x="8" y="-17" font-family="Helvetica,sans-Serif" font-size="10.00">icubaby::transcoder</text>
<text text-anchor="middle" x="64.25" y="-5.75" font-family="Helvetica,sans-Serif" font-size="10.00">&lt; char32_t, output_type &gt;</text>
</a>
</g>
</g>
<!-- Node4&#45;&gt;Node2 -->
<g id="edge3_Node000002_Node000004" class="edge">
<title>Node4&#45;&gt;Node2</title>
<g id="a_edge3_Node000002_Node000004"><a xlink:title=" ">
<path fill="none" stroke="#9a32cd" stroke-dasharray="5,2" d="M139.9,-23.08C167.53,-25.98 198.69,-29.24 225.74,-32.08"/>
<polygon fill="#9a32cd" stroke="#9a32cd" points="140.52,-19.62 130.21,-22.06 139.79,-26.59 140.52,-19.62"/>
</a>
</g>
<text text-anchor="middle" x="177.25" y="-32" font-family="Helvetica,sans-Serif" font-size="10.00" fill="grey"> output_</text>
</g>
</g>
</svg>
