<?xml version="1.0" encoding="UTF-8" standalone="no"?>
<!DOCTYPE svg PUBLIC "-//W3C//DTD SVG 1.1//EN"
 "http://www.w3.org/Graphics/SVG/1.1/DTD/svg11.dtd">
<!-- Generated by graphviz version 10.0.1 (20240210.2158)
 -->
<!-- Title: icubaby::ranges::transcode_view&lt; FromEncoding, ToEncoding, View &gt;::iterator Pages: 1 -->
<!--zoomable 150 -->

<svg id="main" version="1.1" xmlns="http://www.w3.org/2000/svg" xmlns:xlink="http://www.w3.org/1999/xlink" xml:space="preserve" onload="init(evt)">
<style type="text/css"><![CDATA[
.node, .edge {opacity: 0.7;}
.node.selected, .edge.selected {opacity: 1;}
.edge:hover path { stroke: red; }
.edge:hover polygon { stroke: red; fill: red; }
]]></style>

<defs>
  <circle id="rim" cx="0" cy="0" r="7"/>
  <circle id="rim2" cx="0" cy="0" r="3.5"/>
  <g id="zoomPlus">
    <use xlink:href="#rim" fill="#404040"><set attributeName="fill" to="#808080" begin="zoomplus.mouseover" end="zoomplus.mouseout"/></use>
    <path d="M-4,0h8M0,-4v8" fill="none" stroke="white" stroke-width="1.5" pointer-events="none"/>
  </g>
  <g id="zoomMin">
    <use xlink:href="#rim" fill="#404040"><set attributeName="fill" to="#808080" begin="zoomminus.mouseover" end="zoomminus.mouseout"/></use>
    <path d="M-4,0h8" fill="none" stroke="white" stroke-width="1.5" pointer-events="none"/>
  </g>
  <g id="arrowUp" transform="translate(30 24)">
    <use xlink:href="#rim"/>
    <path pointer-events="none" fill="none" stroke="white" stroke-width="1.5" d="M0,-3.0v7 M-2.5,-0.5L0,-3.0L2.5,-0.5"/>
  </g>
  <g id="arrowRight" transform="rotate(90) translate(36 -43)">
    <use xlink:href="#rim"/>
    <path pointer-events="none" fill="none" stroke="white" stroke-width="1.5" d="M0,-3.0v7 M-2.5,-0.5L0,-3.0L2.5,-0.5"/>
  </g>
  <g id="arrowDown" transform="rotate(180) translate(-30 -48)">
    <use xlink:href="#rim"/>
    <path pointer-events="none" fill="none" stroke="white" stroke-width="1.5" d="M0,-3.0v7 M-2.5,-0.5L0,-3.0L2.5,-0.5"/>
  </g>
  <g id="arrowLeft" transform="rotate(270) translate(-36 17)">
    <use xlink:href="#rim"/>
    <path pointer-events="none" fill="none" stroke="white" stroke-width="1.5" d="M0,-3.0v7 M-2.5,-0.5L0,-3.0L2.5,-0.5"/>
  </g>
  <g id="resetDef">
    <use xlink:href="#rim2" fill="#404040"><set attributeName="fill" to="#808080" begin="reset.mouseover" end="reset.mouseout"/></use>
  </g>
</defs>
<script type="application/ecmascript">
var viewWidth = 685;
var viewHeight = 150;
var sectionId = 'dynsection-0';
</script>
<script type="application/ecmascript" xlink:href="svg.min.js"/>
<svg id="graph" class="graph">
<g id="viewport">
<title>icubaby::ranges::transcode_view&lt; FromEncoding, ToEncoding, View &gt;::iterator</title>
<!-- Node1 -->
<g id="Node000001" class="node">
<title>Node1</title>
<g id="a_Node000001"><a xlink:title="The iterator type of transcode_view.">
<polygon fill="#999999" stroke="#666666" points="676.5,-71.75 503,-71.75 503,-30 676.5,-30 676.5,-71.75"/>
<text text-anchor="start" x="511" y="-58.25" font-family="Helvetica,sans-Serif" font-size="10.00">icubaby::ranges::transcode</text>
<text text-anchor="start" x="511" y="-47" font-family="Helvetica,sans-Serif" font-size="10.00">_view&lt; FromEncoding, ToEncoding,</text>
<text text-anchor="middle" x="589.75" y="-35.75" font-family="Helvetica,sans-Serif" font-size="10.00"> View &gt;::iterator</text>
</a>
</g>
</g>
<!-- Node2 -->
<g id="Node000002" class="node">
<title>Node2</title>
<g id="a_Node000002"><a xlink:href="classicubaby_1_1ranges_1_1transcode__view.html" target="_top" xlink:title="A range adaptor for lazily converting between Unicode encodings.">
<polygon fill="white" stroke="#666666" points="431.75,-101.75 258.25,-101.75 258.25,-60 431.75,-60 431.75,-101.75"/>
<text text-anchor="start" x="266.25" y="-88.25" font-family="Helvetica,sans-Serif" font-size="10.00">icubaby::ranges::transcode</text>
<text text-anchor="start" x="266.25" y="-77" font-family="Helvetica,sans-Serif" font-size="10.00">_view&lt; FromEncoding, ToEncoding,</text>
<text text-anchor="middle" x="345" y="-65.75" font-family="Helvetica,sans-Serif" font-size="10.00"> View &gt;</text>
</a>
</g>
</g>
<!-- Node2&#45;&gt;Node1 -->
<g id="edge1_Node000001_Node000002" class="edge">
<title>Node2&#45;&gt;Node1</title>
<g id="a_edge1_Node000001_Node000002"><a xlink:title=" ">
<path fill="none" stroke="#9a32cd" stroke-dasharray="5,2" d="M443.34,-68.85C462.92,-66.43 483.36,-63.9 502.53,-61.53"/>
<polygon fill="#9a32cd" stroke="#9a32cd" points="442.92,-65.37 433.43,-70.07 443.78,-72.32 442.92,-65.37"/>
</a>
</g>
<text text-anchor="middle" x="467.38" y="-68.62" font-family="Helvetica,sans-Serif" font-size="10.00" fill="grey"> parent_</text>
</g>
<!-- Node3 -->
<g id="Node000003" class="node">
<title>Node3</title>
<g id="a_Node000003"><a xlink:title=" ">
<polygon fill="white" stroke="#bfbfbf" points="168.25,-141.75 0,-141.75 0,-100 168.25,-100 168.25,-141.75"/>
<text text-anchor="start" x="8" y="-128.25" font-family="Helvetica,sans-Serif" font-size="10.00">std::ranges::view_interface</text>
<text text-anchor="start" x="8" y="-117" font-family="Helvetica,sans-Serif" font-size="10.00">&lt; transcode_view&lt; FromEncoding,</text>
<text text-anchor="middle" x="84.12" y="-105.75" font-family="Helvetica,sans-Serif" font-size="10.00"> ToEncoding, View &gt; &gt;</text>
</a>
</g>
</g>
<!-- Node3&#45;&gt;Node2 -->
<g id="edge2_Node000002_Node000003" class="edge">
<title>Node3&#45;&gt;Node2</title>
<g id="a_edge2_Node000002_Node000003"><a xlink:title=" ">
<path fill="none" stroke="#63b8ff" d="M179.71,-106.26C205.37,-102.3 233,-98.03 258.15,-94.14"/>
<polygon fill="#63b8ff" stroke="#63b8ff" points="179.3,-102.78 169.96,-107.77 180.37,-109.7 179.3,-102.78"/>
</a>
</g>
</g>
<!-- Node4 -->
<g id="Node000004" class="node">
<title>Node4</title>
<g id="a_Node000004"><a xlink:title=" ">
<polygon fill="white" stroke="#bfbfbf" points="103,-81.5 65.25,-81.5 65.25,-62.25 103,-62.25 103,-81.5"/>
<text text-anchor="middle" x="84.12" y="-68" font-family="Helvetica,sans-Serif" font-size="10.00">View</text>
</a>
</g>
</g>
<!-- Node4&#45;&gt;Node2 -->
<g id="edge3_Node000002_Node000004" class="edge">
<title>Node4&#45;&gt;Node2</title>
<g id="a_edge3_Node000002_Node000004"><a xlink:title=" ">
<path fill="none" stroke="#9a32cd" stroke-dasharray="5,2" d="M114.51,-72.9C149.19,-74.1 208.39,-76.16 257.98,-77.88"/>
<polygon fill="#9a32cd" stroke="#9a32cd" points="114.96,-69.41 104.84,-72.56 114.71,-76.41 114.96,-69.41"/>
</a>
</g>
<text text-anchor="middle" x="213.25" y="-78.62" font-family="Helvetica,sans-Serif" font-size="10.00" fill="grey"> base_</text>
</g>
<!-- Node5 -->
<g id="Node000005" class="node">
<title>Node5</title>
<g id="a_Node000005"><a xlink:href="classicubaby_1_1ranges_1_1transcode__view_1_1iterator_1_1state.html" target="_top" xlink:title="The state class is responsible for transforming the input values to output code units.">
<polygon fill="white" stroke="#666666" points="431.75,-41.75 258.25,-41.75 258.25,0 431.75,0 431.75,-41.75"/>
<text text-anchor="start" x="266.25" y="-28.25" font-family="Helvetica,sans-Serif" font-size="10.00">icubaby::ranges::transcode</text>
<text text-anchor="start" x="266.25" y="-17" font-family="Helvetica,sans-Serif" font-size="10.00">_view&lt; FromEncoding, ToEncoding,</text>
<text text-anchor="middle" x="345" y="-5.75" font-family="Helvetica,sans-Serif" font-size="10.00"> View &gt;::iterator::state</text>
</a>
</g>
</g>
<!-- Node5&#45;&gt;Node1 -->
<g id="edge4_Node000001_Node000005" class="edge">
<title>Node5&#45;&gt;Node1</title>
<g id="a_edge4_Node000001_Node000005"><a xlink:title=" ">
<path fill="none" stroke="#9a32cd" stroke-dasharray="5,2" d="M443.34,-32.9C462.92,-35.32 483.36,-37.85 502.53,-40.22"/>
<polygon fill="#9a32cd" stroke="#9a32cd" points="443.78,-29.43 433.43,-31.68 442.92,-36.38 443.78,-29.43"/>
</a>
</g>
<text text-anchor="middle" x="467.38" y="-39.62" font-family="Helvetica,sans-Serif" font-size="10.00" fill="grey"> state_</text>
</g>
<!-- Node6 -->
<g id="Node000006" class="node">
<title>Node6</title>
<g id="a_Node000006"><a xlink:href="classicubaby_1_1transcoder.html" target="_top" xlink:title=" ">
<polygon fill="white" stroke="#666666" points="161.12,-36.12 7.12,-36.12 7.12,-5.62 161.12,-5.62 161.12,-36.12"/>
<text text-anchor="start" x="15.12" y="-22.62" font-family="Helvetica,sans-Serif" font-size="10.00">icubaby::transcoder</text>
<text text-anchor="middle" x="84.12" y="-11.38" font-family="Helvetica,sans-Serif" font-size="10.00">&lt; FromEncoding, ToEncoding &gt;</text>
</a>
</g>
</g>
<!-- Node6&#45;&gt;Node5 -->
<g id="edge5_Node000005_Node000006" class="edge">
<title>Node6&#45;&gt;Node5</title>
<g id="a_edge5_Node000005_Node000006"><a xlink:title=" ">
<path fill="none" stroke="#9a32cd" stroke-dasharray="5,2" d="M172.59,-20.88C200.09,-20.88 230.42,-20.88 257.83,-20.88"/>
<polygon fill="#9a32cd" stroke="#9a32cd" points="172.91,-17.38 162.91,-20.88 172.91,-24.38 172.91,-17.38"/>
</a>
</g>
<text text-anchor="middle" x="213.25" y="-22.62" font-family="Helvetica,sans-Serif" font-size="10.00" fill="grey"> transcoder_</text>
</g>
</g>
</svg>

<g id="navigator" transform="translate(0 0)" fill="#404254">
  <rect fill="#f2f5e9" fill-opacity="0.5" stroke="#606060" stroke-width=".5" x="0" y="0" width="60" height="60"/>
  <use id="zoomplus" xlink:href="#zoomPlus" x="17" y="9" onmousedown="handleZoom(evt,'in')"/>
  <use id="zoomminus" xlink:href="#zoomMin" x="42" y="9" onmousedown="handleZoom(evt,'out')"/>
  <use id="reset" xlink:href="#resetDef" x="30" y="36" onmousedown="handleReset()"/>
   <use id="arrowup" xlink:href="#arrowUp" x="0" y="0" onmousedown="handlePan(0,-1)"/>
  <use id="arrowright" xlink:href="#arrowRight" x="0" y="0" onmousedown="handlePan(1,0)"/>
  <use id="arrowdown" xlink:href="#arrowDown" x="0" y="0" onmousedown="handlePan(0,1)"/>
  <use id="arrowleft" xlink:href="#arrowLeft" x="0" y="0" onmousedown="handlePan(-1,0)"/>
</g>
<svg viewBox="0 0 15 15" width="100%" height="30px" preserveAspectRatio="xMaxYMin meet">
 <g id="arrow_out" transform="scale(0.3 0.3)">
  <a xlink:href="classicubaby_1_1ranges_1_1transcode__view_1_1iterator__coll__graph_org.svg" target="_base">
   <rect id="button" ry="5" rx="5" y="6" x="6" height="38" width="38"
        fill="#f2f5e9" fill-opacity="0.5" stroke="#606060" stroke-width="1.0"/>
   <path id="arrow"
     d="M 11.500037,31.436501 C 11.940474,20.09759 22.043105,11.32322 32.158766,21.979434 L 37.068811,17.246167 C 37.068811,17.246167 37.088388,32 37.088388,32 L 22.160133,31.978069 C 22.160133,31.978069 26.997745,27.140456 26.997745,27.140456 C 18.528582,18.264221 13.291696,25.230495 11.500037,31.436501 z"
     style="fill:#404040;"/>
  </a>
 </g>
</svg>

<style type='text/css'>
<![CDATA[
[data-mouse-over-selected='false'] { opacity: 0.7; }
[data-mouse-over-selected='true']  { opacity: 1.0; }
]]>
</style>
<script type="application/ecmascript"><![CDATA[
document.addEventListener('DOMContentLoaded', (event) => {
  highlightEdges();
  highlightAdjacentNodes();
});
]]></script>
</svg>
