<?xml version="1.0" encoding="UTF-8" standalone="no"?>
<!DOCTYPE svg PUBLIC "-//W3C//DTD SVG 1.1//EN"
 "http://www.w3.org/Graphics/SVG/1.1/DTD/svg11.dtd">
<!-- Generated by graphviz version 10.0.1 (20240210.2158)
 -->
<!-- Title: icubaby::ranges::transcode_view&lt; FromEncoding, ToEncoding, View &gt;::iterator Pages: 1 -->
<svg width="685pt" height="150pt"
 viewBox="0.00 0.00 684.50 149.75" xmlns="http://www.w3.org/2000/svg" xmlns:xlink="http://www.w3.org/1999/xlink">
<g id="graph0" class="graph" transform="scale(1 1) rotate(0) translate(4 145.75)">
<title>icubaby::ranges::transcode_view&lt; FromEncoding, ToEncoding, View &gt;::iterator</title>
<!-- Node1 -->
<g id="Node000001" class="node">
<title>Node1</title>
<g id="a_Node000001"><a xlink:title="The iterator type of transcode_view.">
<polygon fill="#999999" stroke="#666666" points="676.5,-71.75 503,-71.75 503,-30 676.5,-30 676.5,-71.75"/>
<text text-anchor="start" x="511" y="-58.25" font-family="Helvetica,sans-Serif" font-size="10.00">icubaby::ranges::transcode</text>
<text text-anchor="start" x="511" y="-47" font-family="Helvetica,sans-Serif" font-size="10.00">_view&lt; FromEncoding, ToEncoding,</text>
<text text-anchor="middle" x="589.75" y="-35.75" font-family="Helvetica,sans-Serif" font-size="10.00"> View &gt;::iterator</text>
</a>
</g>
</g>
<!-- Node2 -->
<g id="Node000002" class="node">
<title>Node2</title>
<g id="a_Node000002"><a xlink:href="classicubaby_1_1ranges_1_1transcode__view.html" target="_top" xlink:title="A range adaptor for lazily converting between Unicode encodings.">
<polygon fill="white" stroke="#666666" points="431.75,-101.75 258.25,-101.75 258.25,-60 431.75,-60 431.75,-101.75"/>
<text text-anchor="start" x="266.25" y="-88.25" font-family="Helvetica,sans-Serif" font-size="10.00">icubaby::ranges::transcode</text>
<text text-anchor="start" x="266.25" y="-77" font-family="Helvetica,sans-Serif" font-size="10.00">_view&lt; FromEncoding, ToEncoding,</text>
<text text-anchor="middle" x="345" y="-65.75" font-family="Helvetica,sans-Serif" font-size="10.00"> View &gt;</text>
</a>
</g>
</g>
<!-- Node2&#45;&gt;Node1 -->
<g id="edge1_Node000001_Node000002" class="edge">
<title>Node2&#45;&gt;Node1</title>
<g id="a_edge1_Node000001_Node000002"><a xlink:title=" ">
<path fill="none" stroke="#9a32cd" stroke-dasharray="5,2" d="M443.34,-68.85C462.92,-66.43 483.36,-63.9 502.53,-61.53"/>
<polygon fill="#9a32cd" stroke="#9a32cd" points="442.92,-65.37 433.43,-70.07 443.78,-72.32 442.92,-65.37"/>
</a>
</g>
<text text-anchor="middle" x="467.38" y="-68.62" font-family="Helvetica,sans-Serif" font-size="10.00" fill="grey"> parent_</text>
</g>
<!-- Node3 -->
<g id="Node000003" class="node">
<title>Node3</title>
<g id="a_Node000003"><a xlink:title=" ">
<polygon fill="white" stroke="#bfbfbf" points="168.25,-141.75 0,-141.75 0,-100 168.25,-100 168.25,-141.75"/>
<text text-anchor="start" x="8" y="-128.25" font-family="Helvetica,sans-Serif" font-size="10.00">std::ranges::view_interface</text>
<text text-anchor="start" x="8" y="-117" font-family="Helvetica,sans-Serif" font-size="10.00">&lt; transcode_view&lt; FromEncoding,</text>
<text text-anchor="middle" x="84.12" y="-105.75" font-family="Helvetica,sans-Serif" font-size="10.00"> ToEncoding, View &gt; &gt;</text>
</a>
</g>
</g>
<!-- Node3&#45;&gt;Node2 -->
<g id="edge2_Node000002_Node000003" class="edge">
<title>Node3&#45;&gt;Node2</title>
<g id="a_edge2_Node000002_Node000003"><a xlink:title=" ">
<path fill="none" stroke="#63b8ff" d="M179.71,-106.26C205.37,-102.3 233,-98.03 258.15,-94.14"/>
<polygon fill="#63b8ff" stroke="#63b8ff" points="179.3,-102.78 169.96,-107.77 180.37,-109.7 179.3,-102.78"/>
</a>
</g>
</g>
<!-- Node4 -->
<g id="Node000004" class="node">
<title>Node4</title>
<g id="a_Node000004"><a xlink:title=" ">
<polygon fill="white" stroke="#bfbfbf" points="103,-81.5 65.25,-81.5 65.25,-62.25 103,-62.25 103,-81.5"/>
<text text-anchor="middle" x="84.12" y="-68" font-family="Helvetica,sans-Serif" font-size="10.00">View</text>
</a>
</g>
</g>
<!-- Node4&#45;&gt;Node2 -->
<g id="edge3_Node000002_Node000004" class="edge">
<title>Node4&#45;&gt;Node2</title>
<g id="a_edge3_Node000002_Node000004"><a xlink:title=" ">
<path fill="none" stroke="#9a32cd" stroke-dasharray="5,2" d="M114.51,-72.9C149.19,-74.1 208.39,-76.16 257.98,-77.88"/>
<polygon fill="#9a32cd" stroke="#9a32cd" points="114.96,-69.41 104.84,-72.56 114.71,-76.41 114.96,-69.41"/>
</a>
</g>
<text text-anchor="middle" x="213.25" y="-78.62" font-family="Helvetica,sans-Serif" font-size="10.00" fill="grey"> base_</text>
</g>
<!-- Node5 -->
<g id="Node000005" class="node">
<title>Node5</title>
<g id="a_Node000005"><a xlink:href="classicubaby_1_1ranges_1_1transcode__view_1_1iterator_1_1state.html" target="_top" xlink:title="The state class is responsible for transforming the input values to output code units.">
<polygon fill="white" stroke="#666666" points="431.75,-41.75 258.25,-41.75 258.25,0 431.75,0 431.75,-41.75"/>
<text text-anchor="start" x="266.25" y="-28.25" font-family="Helvetica,sans-Serif" font-size="10.00">icubaby::ranges::transcode</text>
<text text-anchor="start" x="266.25" y="-17" font-family="Helvetica,sans-Serif" font-size="10.00">_view&lt; FromEncoding, ToEncoding,</text>
<text text-anchor="middle" x="345" y="-5.75" font-family="Helvetica,sans-Serif" font-size="10.00"> View &gt;::iterator::state</text>
</a>
</g>
</g>
<!-- Node5&#45;&gt;Node1 -->
<g id="edge4_Node000001_Node000005" class="edge">
<title>Node5&#45;&gt;Node1</title>
<g id="a_edge4_Node000001_Node000005"><a xlink:title=" ">
<path fill="none" stroke="#9a32cd" stroke-dasharray="5,2" d="M443.34,-32.9C462.92,-35.32 483.36,-37.85 502.53,-40.22"/>
<polygon fill="#9a32cd" stroke="#9a32cd" points="443.78,-29.43 433.43,-31.68 442.92,-36.38 443.78,-29.43"/>
</a>
</g>
<text text-anchor="middle" x="467.38" y="-39.62" font-family="Helvetica,sans-Serif" font-size="10.00" fill="grey"> state_</text>
</g>
<!-- Node6 -->
<g id="Node000006" class="node">
<title>Node6</title>
<g id="a_Node000006"><a xlink:href="classicubaby_1_1transcoder.html" target="_top" xlink:title=" ">
<polygon fill="white" stroke="#666666" points="161.12,-36.12 7.12,-36.12 7.12,-5.62 161.12,-5.62 161.12,-36.12"/>
<text text-anchor="start" x="15.12" y="-22.62" font-family="Helvetica,sans-Serif" font-size="10.00">icubaby::transcoder</text>
<text text-anchor="middle" x="84.12" y="-11.38" font-family="Helvetica,sans-Serif" font-size="10.00">&lt; FromEncoding, ToEncoding &gt;</text>
</a>
</g>
</g>
<!-- Node6&#45;&gt;Node5 -->
<g id="edge5_Node000005_Node000006" class="edge">
<title>Node6&#45;&gt;Node5</title>
<g id="a_edge5_Node000005_Node000006"><a xlink:title=" ">
<path fill="none" stroke="#9a32cd" stroke-dasharray="5,2" d="M172.59,-20.88C200.09,-20.88 230.42,-20.88 257.83,-20.88"/>
<polygon fill="#9a32cd" stroke="#9a32cd" points="172.91,-17.38 162.91,-20.88 172.91,-24.38 172.91,-17.38"/>
</a>
</g>
<text text-anchor="middle" x="213.25" y="-22.62" font-family="Helvetica,sans-Serif" font-size="10.00" fill="grey"> transcoder_</text>
</g>
</g>
</svg>
