<?xml version="1.0" encoding="UTF-8" standalone="no"?>
<!DOCTYPE svg PUBLIC "-//W3C//DTD SVG 1.1//EN"
 "http://www.w3.org/Graphics/SVG/1.1/DTD/svg11.dtd">
<!-- Generated by graphviz version 10.0.1 (20240210.2158)
 -->
<!-- Title: StateTransitionDiagram Pages: 1 -->
<svg width="728pt" height="582pt"
 viewBox="0.00 0.00 727.94 581.50" xmlns="http://www.w3.org/2000/svg" xmlns:xlink="http://www.w3.org/1999/xlink">
<g id="graph0" class="graph" transform="scale(1 1) rotate(0) translate(4 577.5)">
<title>StateTransitionDiagram</title>
<polygon fill="white" stroke="none" points="-4,4 -4,-577.5 723.94,-577.5 723.94,4 -4,4"/>
<g id="clust1" class="cluster">
<title>cluster_be16</title>
</g>
<g id="clust2" class="cluster">
<title>cluster_le</title>
</g>
<g id="clust3" class="cluster">
<title>cluster_be</title>
</g>
<g id="clust4" class="cluster">
<title>cluster_c</title>
</g>
<!-- init -->
<g id="node1" class="node">
<title>init</title>
</g>
<!-- start -->
<g id="node2" class="node">
<title>start</title>
<polygon fill="none" stroke="black" points="456,-478 456,-514 510,-514 510,-478 456,-478"/>
<text text-anchor="middle" x="482.75" y="-491.73" font-family="Times,serif" font-size="12.00">start</text>
</g>
<!-- init&#45;&gt;start -->
<g id="edge1" class="edge">
<title>init&#45;&gt;start</title>
<path fill="none" stroke="black" d="M483,-537.56C483,-533.8 483,-529.72 483,-525.64"/>
<polygon fill="black" stroke="black" points="486.5,-525.93 483,-515.93 479.5,-525.93 486.5,-525.93"/>
</g>
<!-- utf16_be_bom_byte1 -->
<g id="node3" class="node">
<title>utf16_be_bom_byte1</title>
<polygon fill="none" stroke="#fc8d59" points="16.12,-280 16.12,-317 125.88,-317 125.88,-280 16.12,-280"/>
<text text-anchor="middle" x="71" y="-304.45" font-family="Times,serif" font-size="9.00">utf16_be_bom_byte1</text>
<polyline fill="none" stroke="#fc8d59" points="16.12,-298.5 125.88,-298.5"/>
<text text-anchor="middle" x="71" y="-285.95" font-family="Times,serif" font-size="9.00">UTF&#45;16BE, BOM, Byte 1</text>
</g>
<!-- start&#45;&gt;utf16_be_bom_byte1 -->
<g id="edge3" class="edge">
<title>start&#45;&gt;utf16_be_bom_byte1</title>
<path fill="none" stroke="black" d="M455.6,-495.44C383.38,-496.08 189.95,-494.23 140,-457.5 98.18,-426.76 81.36,-365.17 74.85,-328.63"/>
<polygon fill="black" stroke="black" points="78.31,-328.09 73.26,-318.77 71.4,-329.2 78.31,-328.09"/>
<text text-anchor="middle" x="240.63" y="-489.23" font-family="Times,serif" font-size="9.00">x=0xFE</text>
</g>
<!-- utf8_bom_byte1 -->
<g id="node5" class="node">
<title>utf8_bom_byte1</title>
<polygon fill="none" stroke="#fc8d59" points="436,-346 436,-383 530,-383 530,-346 436,-346"/>
<text text-anchor="middle" x="483" y="-370.45" font-family="Times,serif" font-size="9.00">utf8_bom_byte1</text>
<polyline fill="none" stroke="#fc8d59" points="436,-364.5 530,-364.5"/>
<text text-anchor="middle" x="483" y="-351.95" font-family="Times,serif" font-size="9.00">UTF&#45;8, BOM, Byte 1</text>
</g>
<!-- start&#45;&gt;utf8_bom_byte1 -->
<g id="edge2" class="edge">
<title>start&#45;&gt;utf8_bom_byte1</title>
<path fill="none" stroke="black" d="M483,-477.54C483,-456.2 483,-419.8 483,-394.3"/>
<polygon fill="black" stroke="black" points="486.5,-394.62 483,-384.62 479.5,-394.62 486.5,-394.62"/>
<text text-anchor="middle" x="468.38" y="-432.39" font-family="Times,serif" font-size="9.00">x=0xEF</text>
</g>
<!-- utf32_or_16_le_bom_byte1 -->
<g id="node7" class="node">
<title>utf32_or_16_le_bom_byte1</title>
<polygon fill="none" stroke="#fc8d59" points="253.88,-412 253.88,-449 374.12,-449 374.12,-412 253.88,-412"/>
<text text-anchor="middle" x="314" y="-436.45" font-family="Times,serif" font-size="9.00">utf32_or_16_le_bom_byte1</text>
<polyline fill="none" stroke="#fc8d59" points="253.88,-430.5 374.12,-430.5"/>
<text text-anchor="middle" x="314" y="-417.95" font-family="Times,serif" font-size="9.00">UTF&#45;32/16LE, BOM, Byte 1</text>
</g>
<!-- start&#45;&gt;utf32_or_16_le_bom_byte1 -->
<g id="edge4" class="edge">
<title>start&#45;&gt;utf32_or_16_le_bom_byte1</title>
<path fill="none" stroke="black" d="M455.85,-484.8C433.43,-476.37 400.81,-464.12 372.5,-453.48"/>
<polygon fill="black" stroke="black" points="373.9,-450.27 363.31,-450.03 371.44,-456.82 373.9,-450.27"/>
<text text-anchor="middle" x="394.22" y="-469.09" font-family="Times,serif" font-size="9.00">x=0xFF</text>
</g>
<!-- utf32_or_16_be_bom_byte1 -->
<g id="node8" class="node">
<title>utf32_or_16_be_bom_byte1</title>
<polygon fill="none" stroke="#fc8d59" points="575.5,-412 575.5,-449 696.5,-449 696.5,-412 575.5,-412"/>
<text text-anchor="middle" x="636" y="-436.45" font-family="Times,serif" font-size="9.00">utf32_or_16_be_bom_byte1</text>
<polyline fill="none" stroke="#fc8d59" points="575.5,-430.5 696.5,-430.5"/>
<text text-anchor="middle" x="636" y="-417.95" font-family="Times,serif" font-size="9.00">UTF&#45;32/16BE, BOM, Byte 1</text>
</g>
<!-- start&#45;&gt;utf32_or_16_be_bom_byte1 -->
<g id="edge5" class="edge">
<title>start&#45;&gt;utf32_or_16_be_bom_byte1</title>
<path fill="none" stroke="black" d="M510.35,-483.65C530.27,-475.38 557.89,-463.92 582.17,-453.84"/>
<polygon fill="black" stroke="black" points="583.4,-457.12 591.29,-450.06 580.71,-450.66 583.4,-457.12"/>
<text text-anchor="middle" x="537.5" y="-468.57" font-family="Times,serif" font-size="9.00">x=0x00</text>
</g>
<!-- run8 -->
<g id="node12" class="node">
<title>run8</title>
<polygon fill="none" stroke="#91bfdb" points="452.88,-204.5 452.88,-241.5 513.12,-241.5 513.12,-204.5 452.88,-204.5"/>
<text text-anchor="middle" x="483" y="-228.95" font-family="Times,serif" font-size="9.00">run8</text>
<polyline fill="none" stroke="#91bfdb" points="452.88,-223 513.12,-223"/>
<text text-anchor="middle" x="483" y="-210.45" font-family="Times,serif" font-size="9.00">UTF&#45;8, Run</text>
</g>
<!-- start&#45;&gt;run8 -->
<g id="edge6" class="edge">
<title>start&#45;&gt;run8</title>
<path fill="none" stroke="black" d="M510.29,-493.58C563.05,-490.33 676.52,-480.77 707,-457.5 717.12,-449.78 719,-444.23 719,-431.5 719,-431.5 719,-431.5 719,-297.5 719,-277.02 722.77,-266.08 707,-253 694.82,-242.9 580.66,-244.31 565,-242 551.73,-240.04 537.4,-237.16 524.49,-234.28"/>
<polygon fill="black" stroke="black" points="525.58,-230.94 515.05,-232.11 524.01,-237.76 525.58,-230.94"/>
<text text-anchor="middle" x="527.54" y="-495.53" font-family="Times,serif" font-size="9.00">otherwise</text>
</g>
<!-- utf16_be_bom_byte1&#45;&gt;run8 -->
<g id="edge12" class="edge">
<title>utf16_be_bom_byte1&#45;&gt;run8</title>
<path fill="none" stroke="black" d="M92.16,-279.64C105.1,-269.85 122.48,-258.59 140,-253 191.71,-236.5 330.07,-248.09 384,-242 402.94,-239.86 423.72,-236.28 441.33,-232.87"/>
<polygon fill="black" stroke="black" points="441.78,-236.34 450.9,-230.96 440.41,-229.48 441.78,-236.34"/>
<text text-anchor="middle" x="74.91" y="-271.09" font-family="Times,serif" font-size="9.00">otherwise</text>
</g>
<!-- run_16be_byte0 -->
<g id="node13" class="node">
<title>run_16be_byte0</title>
<polygon fill="none" stroke="#91bfdb" points="19.12,-204.5 19.12,-241.5 122.88,-241.5 122.88,-204.5 19.12,-204.5"/>
<text text-anchor="middle" x="71" y="-228.95" font-family="Times,serif" font-size="9.00">run_16be_byte0</text>
<polyline fill="none" stroke="#91bfdb" points="19.12,-223 122.88,-223"/>
<text text-anchor="middle" x="71" y="-210.45" font-family="Times,serif" font-size="9.00">UTF&#45;16BE, Run, Byte 0</text>
</g>
<!-- utf16_be_bom_byte1&#45;&gt;run_16be_byte0 -->
<g id="edge11" class="edge">
<title>utf16_be_bom_byte1&#45;&gt;run_16be_byte0</title>
<path fill="none" stroke="black" d="M71,-279.71C71,-271.73 71,-262.12 71,-253.13"/>
<polygon fill="black" stroke="black" points="74.5,-253.4 71,-243.4 67.5,-253.4 74.5,-253.4"/>
<text text-anchor="middle" x="56.38" y="-252.26" font-family="Times,serif" font-size="9.00">x=0xFF</text>
</g>
<!-- utf32_or_16_le_bom_byte2 -->
<g id="node4" class="node">
<title>utf32_or_16_le_bom_byte2</title>
<polygon fill="none" stroke="#fc8d59" points="253.88,-346 253.88,-383 374.12,-383 374.12,-346 253.88,-346"/>
<text text-anchor="middle" x="314" y="-370.45" font-family="Times,serif" font-size="9.00">utf32_or_16_le_bom_byte2</text>
<polyline fill="none" stroke="#fc8d59" points="253.88,-364.5 374.12,-364.5"/>
<text text-anchor="middle" x="314" y="-351.95" font-family="Times,serif" font-size="9.00">UTF&#45;32/16LE, BOM, Byte 2</text>
</g>
<!-- utf32_le_bom_byte3 -->
<g id="node10" class="node">
<title>utf32_le_bom_byte3</title>
<polygon fill="none" stroke="#fc8d59" points="264.5,-280 264.5,-317 373.5,-317 373.5,-280 264.5,-280"/>
<text text-anchor="middle" x="319" y="-304.45" font-family="Times,serif" font-size="9.00">utf32_le_bom_byte3</text>
<polyline fill="none" stroke="#fc8d59" points="264.5,-298.5 373.5,-298.5"/>
<text text-anchor="middle" x="319" y="-285.95" font-family="Times,serif" font-size="9.00">UTF&#45;32LE, BOM, Byte 3</text>
</g>
<!-- utf32_or_16_le_bom_byte2&#45;&gt;utf32_le_bom_byte3 -->
<g id="edge16" class="edge">
<title>utf32_or_16_le_bom_byte2&#45;&gt;utf32_le_bom_byte3</title>
<path fill="none" stroke="black" d="M315.39,-345.67C315.8,-340.4 316.27,-334.49 316.72,-328.7"/>
<polygon fill="black" stroke="black" points="320.21,-328.98 317.5,-318.74 313.23,-328.44 320.21,-328.98"/>
<text text-anchor="middle" x="298.14" y="-337.12" font-family="Times,serif" font-size="9.00">otherwise</text>
</g>
<!-- run_16le_byte0 -->
<g id="node15" class="node">
<title>run_16le_byte0</title>
<polygon fill="none" stroke="#91bfdb" points="150.5,-280 150.5,-317 253.5,-317 253.5,-280 150.5,-280"/>
<text text-anchor="middle" x="202" y="-304.45" font-family="Times,serif" font-size="9.00">run_16le_byte0</text>
<polyline fill="none" stroke="#91bfdb" points="150.5,-298.5 253.5,-298.5"/>
<text text-anchor="middle" x="202" y="-285.95" font-family="Times,serif" font-size="9.00">UTF&#45;16LE, Run, Byte 0</text>
</g>
<!-- utf32_or_16_le_bom_byte2&#45;&gt;run_16le_byte0 -->
<g id="edge15" class="edge">
<title>utf32_or_16_le_bom_byte2&#45;&gt;run_16le_byte0</title>
<path fill="none" stroke="black" d="M282.5,-345.5C270.23,-338.49 256.01,-330.36 242.96,-322.9"/>
<polygon fill="black" stroke="black" points="244.99,-320.04 234.57,-318.11 241.52,-326.11 244.99,-320.04"/>
<text text-anchor="middle" x="243.78" y="-333.25" font-family="Times,serif" font-size="9.00">x=0x00</text>
</g>
<!-- utf8_bom_byte2 -->
<g id="node6" class="node">
<title>utf8_bom_byte2</title>
<polygon fill="none" stroke="#fc8d59" points="436,-280 436,-317 530,-317 530,-280 436,-280"/>
<text text-anchor="middle" x="483" y="-304.45" font-family="Times,serif" font-size="9.00">utf8_bom_byte2</text>
<polyline fill="none" stroke="#fc8d59" points="436,-298.5 530,-298.5"/>
<text text-anchor="middle" x="483" y="-285.95" font-family="Times,serif" font-size="9.00">UTF&#45;8, BOM, Byte 2</text>
</g>
<!-- utf8_bom_byte1&#45;&gt;utf8_bom_byte2 -->
<g id="edge7" class="edge">
<title>utf8_bom_byte1&#45;&gt;utf8_bom_byte2</title>
<path fill="none" stroke="black" d="M483,-345.67C483,-340.4 483,-334.49 483,-328.7"/>
<polygon fill="black" stroke="black" points="486.5,-328.75 483,-318.75 479.5,-328.75 486.5,-328.75"/>
<text text-anchor="middle" x="467.62" y="-333.37" font-family="Times,serif" font-size="9.00">x=0xBB</text>
</g>
<!-- utf8_bom_byte1&#45;&gt;run8 -->
<g id="edge8" class="edge">
<title>utf8_bom_byte1&#45;&gt;run8</title>
<path fill="none" stroke="black" d="M518.11,-345.53C525.3,-340.12 531.91,-333.46 536,-325.5 546.96,-304.15 545.79,-293.41 536,-271.5 532.32,-263.25 526.41,-255.84 519.86,-249.46"/>
<polygon fill="black" stroke="black" points="522.28,-246.93 512.46,-242.94 517.65,-252.18 522.28,-246.93"/>
<text text-anchor="middle" x="500.86" y="-336.98" font-family="Times,serif" font-size="9.00">otherwise</text>
</g>
<!-- utf8_bom_byte2&#45;&gt;run8 -->
<g id="edge9" class="edge">
<title>utf8_bom_byte2&#45;&gt;run8</title>
<path fill="none" stroke="black" d="M479.73,-279.71C479.29,-271.73 479.15,-262.12 479.32,-253.13"/>
<polygon fill="black" stroke="black" points="482.81,-253.52 479.67,-243.4 475.82,-253.26 482.81,-253.52"/>
<text text-anchor="middle" x="464.25" y="-262.76" font-family="Times,serif" font-size="9.00">x=0xBF</text>
</g>
<!-- utf8_bom_byte2&#45;&gt;run8 -->
<g id="edge10" class="edge">
<title>utf8_bom_byte2&#45;&gt;run8</title>
<path fill="none" stroke="black" d="M486.92,-279.71C487.46,-271.73 487.62,-262.12 487.41,-253.13"/>
<polygon fill="black" stroke="black" points="490.92,-253.23 486.99,-243.4 483.93,-253.54 490.92,-253.23"/>
<text text-anchor="middle" x="504.17" y="-271.16" font-family="Times,serif" font-size="9.00">otherwise</text>
</g>
<!-- utf32_or_16_le_bom_byte1&#45;&gt;utf32_or_16_le_bom_byte2 -->
<g id="edge13" class="edge">
<title>utf32_or_16_le_bom_byte1&#45;&gt;utf32_or_16_le_bom_byte2</title>
<path fill="none" stroke="black" d="M314,-411.67C314,-406.4 314,-400.49 314,-394.7"/>
<polygon fill="black" stroke="black" points="317.5,-394.75 314,-384.75 310.5,-394.75 317.5,-394.75"/>
<text text-anchor="middle" x="299.38" y="-399.37" font-family="Times,serif" font-size="9.00">x=0xFE</text>
</g>
<!-- utf32_or_16_le_bom_byte1&#45;&gt;run8 -->
<g id="edge14" class="edge">
<title>utf32_or_16_le_bom_byte1&#45;&gt;run8</title>
<path fill="none" stroke="black" d="M357.36,-411.7C365.99,-406.36 374.17,-399.68 380,-391.5 411.5,-347.27 374.08,-317.46 403,-271.5 412.15,-256.95 427.53,-246.29 442.36,-238.79"/>
<polygon fill="black" stroke="black" points="443.5,-242.13 451.09,-234.74 440.55,-235.78 443.5,-242.13"/>
<text text-anchor="middle" x="340.11" y="-403.15" font-family="Times,serif" font-size="9.00">otherwise</text>
</g>
<!-- utf32_be_bom_byte2 -->
<g id="node9" class="node">
<title>utf32_be_bom_byte2</title>
<polygon fill="none" stroke="#fc8d59" points="581.12,-346 581.12,-383 690.88,-383 690.88,-346 581.12,-346"/>
<text text-anchor="middle" x="636" y="-370.45" font-family="Times,serif" font-size="9.00">utf32_be_bom_byte2</text>
<polyline fill="none" stroke="#fc8d59" points="581.12,-364.5 690.88,-364.5"/>
<text text-anchor="middle" x="636" y="-351.95" font-family="Times,serif" font-size="9.00">UTF&#45;32BE, BOM, Byte 2</text>
</g>
<!-- utf32_or_16_be_bom_byte1&#45;&gt;utf32_be_bom_byte2 -->
<g id="edge19" class="edge">
<title>utf32_or_16_be_bom_byte1&#45;&gt;utf32_be_bom_byte2</title>
<path fill="none" stroke="black" d="M636,-411.67C636,-406.4 636,-400.49 636,-394.7"/>
<polygon fill="black" stroke="black" points="639.5,-394.75 636,-384.75 632.5,-394.75 639.5,-394.75"/>
<text text-anchor="middle" x="622.12" y="-399.37" font-family="Times,serif" font-size="9.00">x=0x00</text>
</g>
<!-- utf32_or_16_be_bom_byte1&#45;&gt;run8 -->
<g id="edge20" class="edge">
<title>utf32_or_16_be_bom_byte1&#45;&gt;run8</title>
<path fill="none" stroke="black" d="M575.23,-426.92C520.12,-423.14 444.73,-413.93 426,-391.5 391.81,-350.57 403.38,-319.8 426,-271.5 430.08,-262.78 436.64,-255.1 443.88,-248.6"/>
<polygon fill="black" stroke="black" points="445.87,-251.5 451.41,-242.48 441.45,-246.07 445.87,-251.5"/>
<text text-anchor="middle" x="557.98" y="-428.87" font-family="Times,serif" font-size="9.00">otherwise</text>
</g>
<!-- utf32_be_bom_byte3 -->
<g id="node11" class="node">
<title>utf32_be_bom_byte3</title>
<polygon fill="none" stroke="#fc8d59" points="587.12,-280 587.12,-317 696.88,-317 696.88,-280 587.12,-280"/>
<text text-anchor="middle" x="642" y="-304.45" font-family="Times,serif" font-size="9.00">utf32_be_bom_byte3</text>
<polyline fill="none" stroke="#fc8d59" points="587.12,-298.5 696.88,-298.5"/>
<text text-anchor="middle" x="642" y="-285.95" font-family="Times,serif" font-size="9.00">UTF&#45;32BE, BOM, Byte 3</text>
</g>
<!-- utf32_be_bom_byte2&#45;&gt;utf32_be_bom_byte3 -->
<g id="edge21" class="edge">
<title>utf32_be_bom_byte2&#45;&gt;utf32_be_bom_byte3</title>
<path fill="none" stroke="black" d="M637.67,-345.67C638.18,-340.26 638.75,-334.18 639.31,-328.24"/>
<polygon fill="black" stroke="black" points="642.75,-329.02 640.2,-318.74 635.78,-328.37 642.75,-329.02"/>
<text text-anchor="middle" x="617.24" y="-333.54" font-family="Times,serif" font-size="9.00">value=0xFE</text>
</g>
<!-- utf32_be_bom_byte2&#45;&gt;run8 -->
<g id="edge22" class="edge">
<title>utf32_be_bom_byte2&#45;&gt;run8</title>
<path fill="none" stroke="black" d="M606.36,-345.66C597.95,-339.84 589.15,-332.93 582,-325.5 555.37,-297.83 563.04,-279.23 535,-253 531.38,-249.61 527.29,-246.47 523.03,-243.61"/>
<polygon fill="black" stroke="black" points="525.21,-240.84 514.85,-238.59 521.54,-246.81 525.21,-240.84"/>
<text text-anchor="middle" x="589.11" y="-337.11" font-family="Times,serif" font-size="9.00">otherwise</text>
</g>
<!-- utf32_le_bom_byte3&#45;&gt;run8 -->
<g id="edge18" class="edge">
<title>utf32_le_bom_byte3&#45;&gt;run8</title>
<path fill="none" stroke="black" d="M341,-279.53C352.86,-270.55 368.1,-260.11 383,-253 401.51,-244.17 423.26,-237.47 441.73,-232.75"/>
<polygon fill="black" stroke="black" points="442.4,-236.19 451.28,-230.42 440.74,-229.39 442.4,-236.19"/>
<text text-anchor="middle" x="323.75" y="-270.98" font-family="Times,serif" font-size="9.00">otherwise</text>
</g>
<!-- run_32le_byte0 -->
<g id="node21" class="node">
<title>run_32le_byte0</title>
<polygon fill="none" stroke="#91bfdb" points="267.5,-204.5 267.5,-241.5 370.5,-241.5 370.5,-204.5 267.5,-204.5"/>
<text text-anchor="middle" x="319" y="-228.95" font-family="Times,serif" font-size="9.00">run_32le_byte0</text>
<polyline fill="none" stroke="#91bfdb" points="267.5,-223 370.5,-223"/>
<text text-anchor="middle" x="319" y="-210.45" font-family="Times,serif" font-size="9.00">UTF&#45;32LE, Run, Byte 0</text>
</g>
<!-- utf32_le_bom_byte3&#45;&gt;run_32le_byte0 -->
<g id="edge17" class="edge">
<title>utf32_le_bom_byte3&#45;&gt;run_32le_byte0</title>
<path fill="none" stroke="black" d="M319,-279.71C319,-271.73 319,-262.12 319,-253.13"/>
<polygon fill="black" stroke="black" points="322.5,-253.4 319,-243.4 315.5,-253.4 322.5,-253.4"/>
<text text-anchor="middle" x="305.12" y="-252.26" font-family="Times,serif" font-size="9.00">x=0x00</text>
</g>
<!-- utf32_be_bom_byte3&#45;&gt;run8 -->
<g id="edge24" class="edge">
<title>utf32_be_bom_byte3&#45;&gt;run8</title>
<path fill="none" stroke="black" d="M619.96,-279.61C608.08,-270.65 592.85,-260.21 578,-253 561.07,-244.78 541.32,-238.3 524.22,-233.57"/>
<polygon fill="black" stroke="black" points="525.45,-230.28 514.89,-231.1 523.66,-237.04 525.45,-230.28"/>
<text text-anchor="middle" x="602.71" y="-271.06" font-family="Times,serif" font-size="9.00">otherwise</text>
</g>
<!-- run_32be_byte0 -->
<g id="node17" class="node">
<title>run_32be_byte0</title>
<polygon fill="none" stroke="#91bfdb" points="590.12,-204.5 590.12,-241.5 693.88,-241.5 693.88,-204.5 590.12,-204.5"/>
<text text-anchor="middle" x="642" y="-228.95" font-family="Times,serif" font-size="9.00">run_32be_byte0</text>
<polyline fill="none" stroke="#91bfdb" points="590.12,-223 693.88,-223"/>
<text text-anchor="middle" x="642" y="-210.45" font-family="Times,serif" font-size="9.00">UTF&#45;32BE, Run, Byte 0</text>
</g>
<!-- utf32_be_bom_byte3&#45;&gt;run_32be_byte0 -->
<g id="edge23" class="edge">
<title>utf32_be_bom_byte3&#45;&gt;run_32be_byte0</title>
<path fill="none" stroke="black" d="M642,-279.71C642,-271.73 642,-262.12 642,-253.13"/>
<polygon fill="black" stroke="black" points="645.5,-253.4 642,-243.4 638.5,-253.4 645.5,-253.4"/>
<text text-anchor="middle" x="663.75" y="-254.95" font-family="Times,serif" font-size="9.00">value=0xFF</text>
</g>
<!-- run8&#45;&gt;run8 -->
<g id="edge25" class="edge">
<title>run8&#45;&gt;run8</title>
<path fill="none" stroke="black" d="M513.31,-228.52C519.6,-227.94 524.12,-226.1 524.12,-223 524.12,-222.61 524.05,-222.25 523.92,-221.9"/>
<polygon fill="black" stroke="black" points="525.28,-218.67 514.71,-218.06 522.59,-225.14 525.28,-218.67"/>
</g>
<!-- run_16be_byte1 -->
<g id="node14" class="node">
<title>run_16be_byte1</title>
<polygon fill="none" stroke="#91bfdb" points="19.12,-143.5 19.12,-180.5 122.88,-180.5 122.88,-143.5 19.12,-143.5"/>
<text text-anchor="middle" x="71" y="-167.95" font-family="Times,serif" font-size="9.00">run_16be_byte1</text>
<polyline fill="none" stroke="#91bfdb" points="19.12,-162 122.88,-162"/>
<text text-anchor="middle" x="71" y="-149.45" font-family="Times,serif" font-size="9.00">UTF&#45;16BE, Run, Byte 1</text>
</g>
<!-- run_16be_byte0&#45;&gt;run_16be_byte1 -->
<g id="edge26" class="edge">
<title>run_16be_byte0&#45;&gt;run_16be_byte1</title>
<path fill="none" stroke="black" d="M67.53,-204.3C67.34,-200.45 67.24,-196.28 67.25,-192.11"/>
<polygon fill="black" stroke="black" points="70.75,-192.29 67.49,-182.2 63.75,-192.11 70.75,-192.29"/>
</g>
<!-- run_16be_byte1&#45;&gt;run_16be_byte0 -->
<g id="edge27" class="edge">
<title>run_16be_byte1&#45;&gt;run_16be_byte0</title>
<path fill="none" stroke="black" d="M75.16,-180.69C75.39,-184.54 75.51,-188.71 75.5,-192.87"/>
<polygon fill="black" stroke="black" points="72,-192.69 75.21,-202.79 79,-192.89 72,-192.69"/>
</g>
<!-- run_16le_byte1 -->
<g id="node16" class="node">
<title>run_16le_byte1</title>
<polygon fill="none" stroke="#91bfdb" points="150.5,-204.5 150.5,-241.5 253.5,-241.5 253.5,-204.5 150.5,-204.5"/>
<text text-anchor="middle" x="202" y="-228.95" font-family="Times,serif" font-size="9.00">run_16le_byte1</text>
<polyline fill="none" stroke="#91bfdb" points="150.5,-223 253.5,-223"/>
<text text-anchor="middle" x="202" y="-210.45" font-family="Times,serif" font-size="9.00">UTF&#45;16LE, Run, Byte 1</text>
</g>
<!-- run_16le_byte0&#45;&gt;run_16le_byte1 -->
<g id="edge28" class="edge">
<title>run_16le_byte0&#45;&gt;run_16le_byte1</title>
<path fill="none" stroke="black" d="M198.73,-279.71C198.29,-271.73 198.15,-262.12 198.32,-253.13"/>
<polygon fill="black" stroke="black" points="201.81,-253.52 198.67,-243.4 194.82,-253.26 201.81,-253.52"/>
</g>
<!-- run_16le_byte1&#45;&gt;run_16le_byte0 -->
<g id="edge29" class="edge">
<title>run_16le_byte1&#45;&gt;run_16le_byte0</title>
<path fill="none" stroke="black" d="M205.92,-241.88C206.46,-249.87 206.62,-259.49 206.41,-268.47"/>
<polygon fill="black" stroke="black" points="202.93,-268.05 205.98,-278.2 209.92,-268.36 202.93,-268.05"/>
</g>
<!-- run_32be_byte1 -->
<g id="node18" class="node">
<title>run_32be_byte1</title>
<polygon fill="none" stroke="#91bfdb" points="592.12,-143.5 592.12,-180.5 695.88,-180.5 695.88,-143.5 592.12,-143.5"/>
<text text-anchor="middle" x="644" y="-167.95" font-family="Times,serif" font-size="9.00">run_32be_byte1</text>
<polyline fill="none" stroke="#91bfdb" points="592.12,-162 695.88,-162"/>
<text text-anchor="middle" x="644" y="-149.45" font-family="Times,serif" font-size="9.00">UTF&#45;32BE, Run, Byte 1</text>
</g>
<!-- run_32be_byte0&#45;&gt;run_32be_byte1 -->
<g id="edge30" class="edge">
<title>run_32be_byte0&#45;&gt;run_32be_byte1</title>
<path fill="none" stroke="black" d="M642.6,-204.3C642.73,-200.45 642.87,-196.28 643.01,-192.11"/>
<polygon fill="black" stroke="black" points="646.51,-192.31 643.35,-182.2 639.51,-192.08 646.51,-192.31"/>
</g>
<!-- run_32be_byte2 -->
<g id="node19" class="node">
<title>run_32be_byte2</title>
<polygon fill="none" stroke="#91bfdb" points="592.12,-77.5 592.12,-114.5 695.88,-114.5 695.88,-77.5 592.12,-77.5"/>
<text text-anchor="middle" x="644" y="-101.95" font-family="Times,serif" font-size="9.00">run_32be_byte2</text>
<polyline fill="none" stroke="#91bfdb" points="592.12,-96 695.88,-96"/>
<text text-anchor="middle" x="644" y="-83.45" font-family="Times,serif" font-size="9.00">UTF&#45;32BE, Run, Byte 2</text>
</g>
<!-- run_32be_byte1&#45;&gt;run_32be_byte2 -->
<g id="edge31" class="edge">
<title>run_32be_byte1&#45;&gt;run_32be_byte2</title>
<path fill="none" stroke="black" d="M644,-143.17C644,-137.9 644,-131.99 644,-126.2"/>
<polygon fill="black" stroke="black" points="647.5,-126.25 644,-116.25 640.5,-126.25 647.5,-126.25"/>
</g>
<!-- run_32be_byte3 -->
<g id="node20" class="node">
<title>run_32be_byte3</title>
<polygon fill="none" stroke="#91bfdb" points="583.12,-16.5 583.12,-53.5 686.88,-53.5 686.88,-16.5 583.12,-16.5"/>
<text text-anchor="middle" x="635" y="-40.95" font-family="Times,serif" font-size="9.00">run_32be_byte3</text>
<polyline fill="none" stroke="#91bfdb" points="583.12,-35 686.88,-35"/>
<text text-anchor="middle" x="635" y="-22.45" font-family="Times,serif" font-size="9.00">UTF&#45;32BE, Run, Byte 3</text>
</g>
<!-- run_32be_byte2&#45;&gt;run_32be_byte3 -->
<g id="edge32" class="edge">
<title>run_32be_byte2&#45;&gt;run_32be_byte3</title>
<path fill="none" stroke="black" d="M641.3,-77.3C640.69,-73.33 640.04,-69.02 639.38,-64.74"/>
<polygon fill="black" stroke="black" points="642.89,-64.54 637.93,-55.19 635.97,-65.6 642.89,-64.54"/>
</g>
<!-- run_32be_byte3&#45;&gt;run_32be_byte0 -->
<g id="edge33" class="edge">
<title>run_32be_byte3&#45;&gt;run_32be_byte0</title>
<path fill="none" stroke="black" d="M606.09,-53.85C598.45,-60.14 591.18,-67.94 587,-77 567.65,-118.98 566.27,-139.69 587,-181 589.98,-186.93 594.26,-192.23 599.15,-196.88"/>
<polygon fill="black" stroke="black" points="596.73,-199.41 606.65,-203.13 601.21,-194.04 596.73,-199.41"/>
</g>
<!-- run_32le_byte1 -->
<g id="node22" class="node">
<title>run_32le_byte1</title>
<polygon fill="none" stroke="#91bfdb" points="269.5,-143.5 269.5,-180.5 372.5,-180.5 372.5,-143.5 269.5,-143.5"/>
<text text-anchor="middle" x="321" y="-167.95" font-family="Times,serif" font-size="9.00">run_32le_byte1</text>
<polyline fill="none" stroke="#91bfdb" points="269.5,-162 372.5,-162"/>
<text text-anchor="middle" x="321" y="-149.45" font-family="Times,serif" font-size="9.00">UTF&#45;32LE, Run, Byte 1</text>
</g>
<!-- run_32le_byte0&#45;&gt;run_32le_byte1 -->
<g id="edge34" class="edge">
<title>run_32le_byte0&#45;&gt;run_32le_byte1</title>
<path fill="none" stroke="black" d="M319.6,-204.3C319.73,-200.45 319.87,-196.28 320.01,-192.11"/>
<polygon fill="black" stroke="black" points="323.51,-192.31 320.35,-182.2 316.51,-192.08 323.51,-192.31"/>
</g>
<!-- run_32le_byte2 -->
<g id="node23" class="node">
<title>run_32le_byte2</title>
<polygon fill="none" stroke="#91bfdb" points="269.5,-77.5 269.5,-114.5 372.5,-114.5 372.5,-77.5 269.5,-77.5"/>
<text text-anchor="middle" x="321" y="-101.95" font-family="Times,serif" font-size="9.00">run_32le_byte2</text>
<polyline fill="none" stroke="#91bfdb" points="269.5,-96 372.5,-96"/>
<text text-anchor="middle" x="321" y="-83.45" font-family="Times,serif" font-size="9.00">UTF&#45;32LE, Run, Byte 2</text>
</g>
<!-- run_32le_byte1&#45;&gt;run_32le_byte2 -->
<g id="edge35" class="edge">
<title>run_32le_byte1&#45;&gt;run_32le_byte2</title>
<path fill="none" stroke="black" d="M321,-143.17C321,-137.9 321,-131.99 321,-126.2"/>
<polygon fill="black" stroke="black" points="324.5,-126.25 321,-116.25 317.5,-126.25 324.5,-126.25"/>
</g>
<!-- run_32le_byte3 -->
<g id="node24" class="node">
<title>run_32le_byte3</title>
<polygon fill="none" stroke="#91bfdb" points="223.5,-16.5 223.5,-53.5 326.5,-53.5 326.5,-16.5 223.5,-16.5"/>
<text text-anchor="middle" x="275" y="-40.95" font-family="Times,serif" font-size="9.00">run_32le_byte3</text>
<polyline fill="none" stroke="#91bfdb" points="223.5,-35 326.5,-35"/>
<text text-anchor="middle" x="275" y="-22.45" font-family="Times,serif" font-size="9.00">UTF&#45;32LE, Run, Byte 3</text>
</g>
<!-- run_32le_byte2&#45;&gt;run_32le_byte3 -->
<g id="edge36" class="edge">
<title>run_32le_byte2&#45;&gt;run_32le_byte3</title>
<path fill="none" stroke="black" d="M307.2,-77.3C303.56,-72.63 299.55,-67.49 295.64,-62.47"/>
<polygon fill="black" stroke="black" points="298.63,-60.62 289.72,-54.88 293.11,-64.92 298.63,-60.62"/>
</g>
<!-- run_32le_byte3&#45;&gt;run_32le_byte0 -->
<g id="edge37" class="edge">
<title>run_32le_byte3&#45;&gt;run_32le_byte0</title>
<path fill="none" stroke="black" d="M268.1,-53.64C258.12,-82.12 243.05,-139.26 264,-181 266.98,-186.93 271.26,-192.23 276.15,-196.88"/>
<polygon fill="black" stroke="black" points="273.73,-199.41 283.65,-203.13 278.21,-194.04 273.73,-199.41"/>
</g>
</g>
</svg>
