<?xml version="1.0" encoding="UTF-8" standalone="no"?>
<!DOCTYPE svg PUBLIC "-//W3C//DTD SVG 1.1//EN"
 "http://www.w3.org/Graphics/SVG/1.1/DTD/svg11.dtd">
<!-- Generated by graphviz version 10.0.1 (20240210.2158)
 -->
<!-- Title: include/icubaby/icubaby.hpp Pages: 1 -->
<svg width="861pt" height="83pt"
 viewBox="0.00 0.00 860.75 82.50" xmlns="http://www.w3.org/2000/svg" xmlns:xlink="http://www.w3.org/1999/xlink">
<g id="graph0" class="graph" transform="scale(1 1) rotate(0) translate(4 78.5)">
<title>include/icubaby/icubaby.hpp</title>
<!-- Node1 -->
<g id="Node000001" class="node">
<title>Node1</title>
<g id="a_Node000001"><a xlink:title="A C++ Baby Library to Immediately Convert Unicode. A header only, dependency free,...">
<polygon fill="#999999" stroke="#666666" points="478.62,-74.5 341.12,-74.5 341.12,-55.25 478.62,-55.25 478.62,-74.5"/>
<text text-anchor="middle" x="409.88" y="-61" font-family="Helvetica,sans-Serif" font-size="10.00">include/icubaby/icubaby.hpp</text>
</a>
</g>
</g>
<!-- Node2 -->
<g id="Node000002" class="node">
<title>Node2</title>
<g id="a_Node000002"><a xlink:title=" ">
<polygon fill="#e0e0e0" stroke="#999999" points="55.75,-19.25 0,-19.25 0,0 55.75,0 55.75,-19.25"/>
<text text-anchor="middle" x="27.88" y="-5.75" font-family="Helvetica,sans-Serif" font-size="10.00">algorithm</text>
</a>
</g>
</g>
<!-- Node1&#45;&gt;Node2 -->
<g id="edge1_Node000001_Node000002" class="edge">
<title>Node1&#45;&gt;Node2</title>
<g id="a_edge1_Node000001_Node000002"><a xlink:title=" ">
<path fill="none" stroke="#63b8ff" d="M340.83,-57.01C273.48,-49.84 167.93,-37.38 67.38,-19.54"/>
<polygon fill="#63b8ff" stroke="#63b8ff" points="68.05,-16.1 57.59,-17.78 66.81,-22.99 68.05,-16.1"/>
</a>
</g>
</g>
<!-- Node3 -->
<g id="Node000003" class="node">
<title>Node3</title>
<g id="a_Node000003"><a xlink:title=" ">
<polygon fill="#e0e0e0" stroke="#999999" points="111.75,-19.25 74,-19.25 74,0 111.75,0 111.75,-19.25"/>
<text text-anchor="middle" x="92.88" y="-5.75" font-family="Helvetica,sans-Serif" font-size="10.00">array</text>
</a>
</g>
</g>
<!-- Node1&#45;&gt;Node3 -->
<g id="edge2_Node000001_Node000003" class="edge">
<title>Node1&#45;&gt;Node3</title>
<g id="a_edge2_Node000001_Node000003"><a xlink:title=" ">
<path fill="none" stroke="#63b8ff" d="M340.73,-56.07C284.37,-49.06 202.61,-37.4 122.79,-19.4"/>
<polygon fill="#63b8ff" stroke="#63b8ff" points="124.06,-16.1 113.53,-17.27 122.49,-22.92 124.06,-16.1"/>
</a>
</g>
</g>
<!-- Node4 -->
<g id="Node000004" class="node">
<title>Node4</title>
<g id="a_Node000004"><a xlink:title=" ">
<polygon fill="#e0e0e0" stroke="#999999" points="178,-19.25 129.75,-19.25 129.75,0 178,0 178,-19.25"/>
<text text-anchor="middle" x="153.88" y="-5.75" font-family="Helvetica,sans-Serif" font-size="10.00">cassert</text>
</a>
</g>
</g>
<!-- Node1&#45;&gt;Node4 -->
<g id="edge3_Node000001_Node000004" class="edge">
<title>Node1&#45;&gt;Node4</title>
<g id="a_edge3_Node000001_Node000004"><a xlink:title=" ">
<path fill="none" stroke="#63b8ff" d="M360.1,-54.77C317.27,-46.75 253.56,-34.36 189.47,-19.75"/>
<polygon fill="#63b8ff" stroke="#63b8ff" points="190.35,-16.36 179.82,-17.53 188.78,-23.18 190.35,-16.36"/>
</a>
</g>
</g>
<!-- Node5 -->
<g id="Node000005" class="node">
<title>Node5</title>
<g id="a_Node000005"><a xlink:title=" ">
<polygon fill="#e0e0e0" stroke="#999999" points="244,-19.25 195.75,-19.25 195.75,0 244,0 244,-19.25"/>
<text text-anchor="middle" x="219.88" y="-5.75" font-family="Helvetica,sans-Serif" font-size="10.00">cstddef</text>
</a>
</g>
</g>
<!-- Node1&#45;&gt;Node5 -->
<g id="edge4_Node000001_Node000005" class="edge">
<title>Node1&#45;&gt;Node5</title>
<g id="a_edge4_Node000001_Node000005"><a xlink:title=" ">
<path fill="none" stroke="#63b8ff" d="M377.64,-54.84C343.63,-45.31 290.2,-30.33 255.1,-20.5"/>
<polygon fill="#63b8ff" stroke="#63b8ff" points="256.42,-17.23 245.85,-17.9 254.53,-23.97 256.42,-17.23"/>
</a>
</g>
</g>
<!-- Node6 -->
<g id="Node000006" class="node">
<title>Node6</title>
<g id="a_Node000006"><a xlink:title=" ">
<polygon fill="#e0e0e0" stroke="#999999" points="307.5,-19.25 262.25,-19.25 262.25,0 307.5,0 307.5,-19.25"/>
<text text-anchor="middle" x="284.88" y="-5.75" font-family="Helvetica,sans-Serif" font-size="10.00">cstdint</text>
</a>
</g>
</g>
<!-- Node1&#45;&gt;Node6 -->
<g id="edge5_Node000001_Node000006" class="edge">
<title>Node1&#45;&gt;Node6</title>
<g id="a_edge5_Node000001_Node000006"><a xlink:title=" ">
<path fill="none" stroke="#63b8ff" d="M388.67,-54.84C368.92,-46.43 339.2,-33.77 316.62,-24.15"/>
<polygon fill="#63b8ff" stroke="#63b8ff" points="318.15,-20.99 307.58,-20.3 315.4,-27.43 318.15,-20.99"/>
</a>
</g>
</g>
<!-- Node7 -->
<g id="Node000007" class="node">
<title>Node7</title>
<g id="a_Node000007"><a xlink:title=" ">
<polygon fill="#e0e0e0" stroke="#999999" points="371.88,-19.25 325.88,-19.25 325.88,0 371.88,0 371.88,-19.25"/>
<text text-anchor="middle" x="348.88" y="-5.75" font-family="Helvetica,sans-Serif" font-size="10.00">iterator</text>
</a>
</g>
</g>
<!-- Node1&#45;&gt;Node7 -->
<g id="edge6_Node000001_Node000007" class="edge">
<title>Node1&#45;&gt;Node7</title>
<g id="a_edge6_Node000001_Node000007"><a xlink:title=" ">
<path fill="none" stroke="#63b8ff" d="M399.53,-54.84C390.8,-47.22 378.09,-36.12 367.58,-26.95"/>
<polygon fill="#63b8ff" stroke="#63b8ff" points="370.05,-24.46 360.21,-20.52 365.44,-29.73 370.05,-24.46"/>
</a>
</g>
</g>
<!-- Node8 -->
<g id="Node000008" class="node">
<title>Node8</title>
<g id="a_Node000008"><a xlink:title=" ">
<polygon fill="#e0e0e0" stroke="#999999" points="429.5,-19.25 390.25,-19.25 390.25,0 429.5,0 429.5,-19.25"/>
<text text-anchor="middle" x="409.88" y="-5.75" font-family="Helvetica,sans-Serif" font-size="10.00">limits</text>
</a>
</g>
</g>
<!-- Node1&#45;&gt;Node8 -->
<g id="edge7_Node000001_Node000008" class="edge">
<title>Node1&#45;&gt;Node8</title>
<g id="a_edge7_Node000001_Node000008"><a xlink:title=" ">
<path fill="none" stroke="#63b8ff" d="M409.88,-55.08C409.88,-48.57 409.88,-39.42 409.88,-31.12"/>
<polygon fill="#63b8ff" stroke="#63b8ff" points="413.38,-31.12 409.88,-21.12 406.38,-31.12 413.38,-31.12"/>
</a>
</g>
</g>
<!-- Node9 -->
<g id="Node000009" class="node">
<title>Node9</title>
<g id="a_Node000009"><a xlink:title=" ">
<polygon fill="#e0e0e0" stroke="#999999" points="487.88,-19.25 447.88,-19.25 447.88,0 487.88,0 487.88,-19.25"/>
<text text-anchor="middle" x="467.88" y="-5.75" font-family="Helvetica,sans-Serif" font-size="10.00">string</text>
</a>
</g>
</g>
<!-- Node1&#45;&gt;Node9 -->
<g id="edge8_Node000001_Node000009" class="edge">
<title>Node1&#45;&gt;Node9</title>
<g id="a_edge8_Node000001_Node000009"><a xlink:title=" ">
<path fill="none" stroke="#63b8ff" d="M419.71,-54.84C427.93,-47.3 439.86,-36.35 449.79,-27.23"/>
<polygon fill="#63b8ff" stroke="#63b8ff" points="452.07,-29.89 457.07,-20.55 447.33,-24.73 452.07,-29.89"/>
</a>
</g>
</g>
<!-- Node10 -->
<g id="Node000010" class="node">
<title>Node10</title>
<g id="a_Node000010"><a xlink:title=" ">
<polygon fill="#e0e0e0" stroke="#999999" points="571.62,-19.25 506.12,-19.25 506.12,0 571.62,0 571.62,-19.25"/>
<text text-anchor="middle" x="538.88" y="-5.75" font-family="Helvetica,sans-Serif" font-size="10.00">string_view</text>
</a>
</g>
</g>
<!-- Node1&#45;&gt;Node10 -->
<g id="edge9_Node000001_Node000010" class="edge">
<title>Node1&#45;&gt;Node10</title>
<g id="a_edge9_Node000001_Node000010"><a xlink:title=" ">
<path fill="none" stroke="#63b8ff" d="M431.76,-54.84C452.24,-46.39 483.09,-33.65 506.43,-24.02"/>
<polygon fill="#63b8ff" stroke="#63b8ff" points="507.58,-27.33 515.49,-20.28 504.91,-20.86 507.58,-27.33"/>
</a>
</g>
</g>
<!-- Node11 -->
<g id="Node000011" class="node">
<title>Node11</title>
<g id="a_Node000011"><a xlink:title=" ">
<polygon fill="#e0e0e0" stroke="#999999" points="651.75,-19.25 590,-19.25 590,0 651.75,0 651.75,-19.25"/>
<text text-anchor="middle" x="620.88" y="-5.75" font-family="Helvetica,sans-Serif" font-size="10.00">type_traits</text>
</a>
</g>
</g>
<!-- Node1&#45;&gt;Node11 -->
<g id="edge10_Node000001_Node000011" class="edge">
<title>Node1&#45;&gt;Node11</title>
<g id="a_edge10_Node000001_Node000011"><a xlink:title=" ">
<path fill="none" stroke="#63b8ff" d="M445.67,-54.84C482.48,-45.55 539.79,-31.09 578.76,-21.25"/>
<polygon fill="#63b8ff" stroke="#63b8ff" points="579.42,-24.7 588.26,-18.86 577.71,-17.91 579.42,-24.7"/>
</a>
</g>
</g>
<!-- Node12 -->
<g id="Node000012" class="node">
<title>Node12</title>
<g id="a_Node000012"><a xlink:title=" ">
<polygon fill="#e0e0e0" stroke="#999999" points="715.5,-19.25 670.25,-19.25 670.25,0 715.5,0 715.5,-19.25"/>
<text text-anchor="middle" x="692.88" y="-5.75" font-family="Helvetica,sans-Serif" font-size="10.00">variant</text>
</a>
</g>
</g>
<!-- Node1&#45;&gt;Node12 -->
<g id="edge11_Node000001_Node000012" class="edge">
<title>Node1&#45;&gt;Node12</title>
<g id="a_edge11_Node000001_Node000012"><a xlink:title=" ">
<path fill="none" stroke="#63b8ff" d="M469.5,-54.78C518.05,-47.03 588.57,-35.01 659.02,-19.5"/>
<polygon fill="#63b8ff" stroke="#63b8ff" points="659.39,-23 668.39,-17.41 657.86,-16.17 659.39,-23"/>
</a>
</g>
</g>
<!-- Node13 -->
<g id="Node000013" class="node">
<title>Node13</title>
<g id="a_Node000013"><a xlink:title=" ">
<polygon fill="#e0e0e0" stroke="#999999" points="778.5,-19.25 733.25,-19.25 733.25,0 778.5,0 778.5,-19.25"/>
<text text-anchor="middle" x="755.88" y="-5.75" font-family="Helvetica,sans-Serif" font-size="10.00">ranges</text>
</a>
</g>
</g>
<!-- Node1&#45;&gt;Node13 -->
<g id="edge12_Node000001_Node000013" class="edge">
<title>Node1&#45;&gt;Node13</title>
<g id="a_edge12_Node000001_Node000013"><a xlink:title=" ">
<path fill="none" stroke="#63b8ff" d="M478.84,-56.73C540.39,-49.76 633.15,-37.8 721.86,-19.67"/>
<polygon fill="#63b8ff" stroke="#63b8ff" points="722.37,-23.14 731.45,-17.68 720.95,-16.28 722.37,-23.14"/>
</a>
</g>
</g>
<!-- Node14 -->
<g id="Node000014" class="node">
<title>Node14</title>
<g id="a_Node000014"><a xlink:title=" ">
<polygon fill="#e0e0e0" stroke="#999999" points="852.75,-19.25 797,-19.25 797,0 852.75,0 852.75,-19.25"/>
<text text-anchor="middle" x="824.88" y="-5.75" font-family="Helvetica,sans-Serif" font-size="10.00">concepts</text>
</a>
</g>
</g>
<!-- Node1&#45;&gt;Node14 -->
<g id="edge13_Node000001_Node000014" class="edge">
<title>Node1&#45;&gt;Node14</title>
<g id="a_edge13_Node000001_Node000014"><a xlink:title=" ">
<path fill="none" stroke="#63b8ff" d="M478.84,-58.06C552.42,-51.34 672.58,-38.86 785.41,-19.5"/>
<polygon fill="#63b8ff" stroke="#63b8ff" points="785.92,-22.97 795.17,-17.8 784.72,-16.07 785.92,-22.97"/>
</a>
</g>
</g>
</g>
</svg>
