<?xml version="1.0" encoding="UTF-8" standalone="no"?>
<!DOCTYPE svg PUBLIC "-//W3C//DTD SVG 1.1//EN"
 "http://www.w3.org/Graphics/SVG/1.1/DTD/svg11.dtd">
<!-- Generated by graphviz version 10.0.1 (20240210.2158)
 -->
<!-- Title: Graphical Class Hierarchy Pages: 1 -->
<svg width="302pt" height="256pt"
 viewBox="0.00 0.00 301.75 256.12" xmlns="http://www.w3.org/2000/svg" xmlns:xlink="http://www.w3.org/1999/xlink">
<g id="graph0" class="graph" transform="scale(1 1) rotate(0) translate(4 252.12)">
<title>Graphical Class Hierarchy</title>
<!-- Node0 -->
<g id="Node000000" class="node">
<title>Node0</title>
<g id="a_Node000000"><a xlink:title=" ">
<polygon fill="#e0e0e0" stroke="#999999" points="109.75,-122.88 0,-122.88 0,-103.62 109.75,-103.62 109.75,-122.88"/>
<text text-anchor="middle" x="54.88" y="-109.38" font-family="Helvetica,sans-Serif" font-size="10.00">std::integral_constant</text>
</a>
</g>
</g>
<!-- Node1 -->
<g id="Node000001" class="node">
<title>Node1</title>
<g id="a_Node000001"><a xlink:href="structicubaby_1_1details_1_1triangulator__intermediate__code__units.html" target="_top" xlink:title="The maximum number of code units produced as the intermediate output from the triangulator&#39;s conversi...">
<polygon fill="white" stroke="#666666" points="293.75,-248.12 145.75,-248.12 145.75,-206.38 293.75,-206.38 293.75,-248.12"/>
<text text-anchor="start" x="153.75" y="-234.62" font-family="Helvetica,sans-Serif" font-size="10.00">icubaby::details::triangulator</text>
<text text-anchor="start" x="153.75" y="-223.38" font-family="Helvetica,sans-Serif" font-size="10.00">_intermediate_code_units&lt;</text>
<text text-anchor="middle" x="219.75" y="-212.12" font-family="Helvetica,sans-Serif" font-size="10.00"> FromEncoding, ToEncoding &gt;</text>
</a>
</g>
</g>
<!-- Node0&#45;&gt;Node1 -->
<g id="edge10_Node000000_Node000001" class="edge">
<title>Node0&#45;&gt;Node1</title>
<g id="a_edge10_Node000000_Node000001"><a xlink:title=" ">
<path fill="none" stroke="#63b8ff" d="M71.92,-131.75C88.79,-150.3 116.85,-178.69 145.75,-197.25 150.59,-200.36 155.81,-203.26 161.15,-205.93"/>
<polygon fill="#63b8ff" stroke="#63b8ff" points="74.65,-129.56 65.39,-124.42 69.43,-134.21 74.65,-129.56"/>
</a>
</g>
</g>
<!-- Node2 -->
<g id="Node000002" class="node">
<title>Node2</title>
<g id="a_Node000002"><a xlink:href="structicubaby_1_1details_1_1triangulator__intermediate__code__units_3_01char16__t_00_01_to_encoding_01_4.html" target="_top" xlink:title="The maximum number of code units produced when converting from UTF&#45;16.">
<polygon fill="white" stroke="#666666" points="288.88,-188.12 150.62,-188.12 150.62,-146.38 288.88,-146.38 288.88,-188.12"/>
<text text-anchor="start" x="158.62" y="-174.62" font-family="Helvetica,sans-Serif" font-size="10.00">icubaby::details::triangulator</text>
<text text-anchor="start" x="158.62" y="-163.38" font-family="Helvetica,sans-Serif" font-size="10.00">_intermediate_code_units&lt;</text>
<text text-anchor="middle" x="219.75" y="-152.12" font-family="Helvetica,sans-Serif" font-size="10.00"> char16_t, ToEncoding &gt;</text>
</a>
</g>
</g>
<!-- Node0&#45;&gt;Node2 -->
<g id="edge11_Node000000_Node000002" class="edge">
<title>Node0&#45;&gt;Node2</title>
<g id="a_edge11_Node000000_Node000002"><a xlink:title=" ">
<path fill="none" stroke="#63b8ff" d="M96.57,-126.74C114.11,-132.56 135.04,-139.5 154.58,-145.98"/>
<polygon fill="#63b8ff" stroke="#63b8ff" points="98.16,-123.58 87.57,-123.76 95.96,-130.23 98.16,-123.58"/>
</a>
</g>
</g>
<!-- Node3 -->
<g id="Node000003" class="node">
<title>Node3</title>
<g id="a_Node000003"><a xlink:href="structicubaby_1_1longest__sequence_3_01char16__t_01_4.html" target="_top" xlink:title="The number of code&#45;units in the longest legal UTF&#45;16 representation of a code&#45;point.">
<polygon fill="white" stroke="#666666" points="287,-128.5 152.5,-128.5 152.5,-98 287,-98 287,-128.5"/>
<text text-anchor="start" x="160.5" y="-115" font-family="Helvetica,sans-Serif" font-size="10.00">icubaby::longest_sequence</text>
<text text-anchor="middle" x="219.75" y="-103.75" font-family="Helvetica,sans-Serif" font-size="10.00">&lt; char16_t &gt;</text>
</a>
</g>
</g>
<!-- Node0&#45;&gt;Node3 -->
<g id="edge12_Node000000_Node000003" class="edge">
<title>Node0&#45;&gt;Node3</title>
<g id="a_edge12_Node000000_Node000003"><a xlink:title=" ">
<path fill="none" stroke="#63b8ff" d="M121.41,-113.25C131.58,-113.25 142.1,-113.25 152.29,-113.25"/>
<polygon fill="#63b8ff" stroke="#63b8ff" points="121.62,-109.75 111.62,-113.25 121.62,-116.75 121.62,-109.75"/>
</a>
</g>
</g>
<!-- Node4 -->
<g id="Node000004" class="node">
<title>Node4</title>
<g id="a_Node000004"><a xlink:href="structicubaby_1_1longest__sequence_3_01char32__t_01_4.html" target="_top" xlink:title="The number of code&#45;units in the longest legal UTF&#45;32 representation of a code&#45;point.">
<polygon fill="white" stroke="#666666" points="287,-79.5 152.5,-79.5 152.5,-49 287,-49 287,-79.5"/>
<text text-anchor="start" x="160.5" y="-66" font-family="Helvetica,sans-Serif" font-size="10.00">icubaby::longest_sequence</text>
<text text-anchor="middle" x="219.75" y="-54.75" font-family="Helvetica,sans-Serif" font-size="10.00">&lt; char32_t &gt;</text>
</a>
</g>
</g>
<!-- Node0&#45;&gt;Node4 -->
<g id="edge13_Node000000_Node000004" class="edge">
<title>Node0&#45;&gt;Node4</title>
<g id="a_edge13_Node000000_Node000004"><a xlink:title=" ">
<path fill="none" stroke="#63b8ff" d="M100.16,-99.93C120.65,-93.76 145.13,-86.4 166.52,-79.96"/>
<polygon fill="#63b8ff" stroke="#63b8ff" points="99.25,-96.55 90.68,-102.78 101.26,-103.25 99.25,-96.55"/>
</a>
</g>
</g>
<!-- Node5 -->
<g id="Node000005" class="node">
<title>Node5</title>
<g id="a_Node000005"><a xlink:href="structicubaby_1_1longest__sequence_3_01char8_01_4.html" target="_top" xlink:title="The number of code&#45;units in the longest legal UTF&#45;8 representation of a code&#45;point.">
<polygon fill="white" stroke="#666666" points="287,-30.5 152.5,-30.5 152.5,0 287,0 287,-30.5"/>
<text text-anchor="start" x="160.5" y="-17" font-family="Helvetica,sans-Serif" font-size="10.00">icubaby::longest_sequence</text>
<text text-anchor="middle" x="219.75" y="-5.75" font-family="Helvetica,sans-Serif" font-size="10.00">&lt; char8 &gt;</text>
</a>
</g>
</g>
<!-- Node0&#45;&gt;Node5 -->
<g id="edge14_Node000000_Node000005" class="edge">
<title>Node0&#45;&gt;Node5</title>
<g id="a_edge14_Node000000_Node000005"><a xlink:title=" ">
<path fill="none" stroke="#63b8ff" d="M73.8,-95.44C91.01,-79.18 118.35,-55.43 145.75,-40.25 151.96,-36.81 158.73,-33.72 165.56,-30.99"/>
<polygon fill="#63b8ff" stroke="#63b8ff" points="71.64,-92.66 66.87,-102.13 76.5,-97.7 71.64,-92.66"/>
</a>
</g>
</g>
</g>
</svg>
