<?xml version="1.0" encoding="UTF-8" standalone="no"?>
<!DOCTYPE svg PUBLIC "-//W3C//DTD SVG 1.1//EN"
 "http://www.w3.org/Graphics/SVG/1.1/DTD/svg11.dtd">
<!-- Generated by graphviz version 10.0.1 (20240210.2158)
 -->
<!-- Title: Graphical Class Hierarchy Pages: 1 -->
<svg width="267pt" height="245pt"
 viewBox="0.00 0.00 267.25 245.12" xmlns="http://www.w3.org/2000/svg" xmlns:xlink="http://www.w3.org/1999/xlink">
<g id="graph0" class="graph" transform="scale(1 1) rotate(0) translate(4 241.12)">
<title>Graphical Class Hierarchy</title>
<!-- Node0 -->
<g id="Node000000" class="node">
<title>Node0</title>
<g id="a_Node000000"><a xlink:title=" ">
<polygon fill="#e0e0e0" stroke="#999999" points="96.25,-133.5 0,-133.5 0,-114.25 96.25,-114.25 96.25,-133.5"/>
<text text-anchor="middle" x="48.12" y="-120" font-family="Helvetica,sans-Serif" font-size="10.00">std::bool_constant</text>
</a>
</g>
</g>
<!-- Node1 -->
<g id="Node000001" class="node">
<title>Node1</title>
<g id="a_Node000001"><a xlink:href="structicubaby_1_1details_1_1contains.html" target="_top" xlink:title="Yields true if the type list contains a type matching Element and false otherwise.">
<polygon fill="white" stroke="#666666" points="259.25,-237.12 132.25,-237.12 132.25,-206.62 259.25,-206.62 259.25,-237.12"/>
<text text-anchor="start" x="140.25" y="-223.62" font-family="Helvetica,sans-Serif" font-size="10.00">icubaby::details::contains</text>
<text text-anchor="middle" x="195.75" y="-212.38" font-family="Helvetica,sans-Serif" font-size="10.00">&lt; TypeList, Element &gt;</text>
</a>
</g>
</g>
<!-- Node0&#45;&gt;Node1 -->
<g id="edge5_Node000000_Node000001" class="edge">
<title>Node0&#45;&gt;Node1</title>
<g id="a_edge5_Node000000_Node000001"><a xlink:title=" ">
<path fill="none" stroke="#63b8ff" d="M66.07,-141.91C81.95,-158 106.98,-181.36 132.25,-196.88 137.83,-200.3 143.96,-203.42 150.13,-206.21"/>
<polygon fill="#63b8ff" stroke="#63b8ff" points="68.76,-139.66 59.29,-134.9 63.73,-144.52 68.76,-139.66"/>
</a>
</g>
</g>
<!-- Node2 -->
<g id="Node000002" class="node">
<title>Node2</title>
<g id="a_Node000002"><a xlink:href="structicubaby_1_1details_1_1contains_3_01type__list_3_4_00_01_element_01_4.html" target="_top" xlink:title="Yields false: the empty type list does not contain a type matching Element.">
<polygon fill="white" stroke="#666666" points="259.25,-188.12 132.25,-188.12 132.25,-157.62 259.25,-157.62 259.25,-188.12"/>
<text text-anchor="start" x="140.25" y="-174.62" font-family="Helvetica,sans-Serif" font-size="10.00">icubaby::details::contains</text>
<text text-anchor="middle" x="195.75" y="-163.38" font-family="Helvetica,sans-Serif" font-size="10.00">&lt; type_list&lt;&gt;, Element &gt;</text>
</a>
</g>
</g>
<!-- Node0&#45;&gt;Node2 -->
<g id="edge6_Node000000_Node000002" class="edge">
<title>Node0&#45;&gt;Node2</title>
<g id="a_edge6_Node000000_Node000002"><a xlink:title=" ">
<path fill="none" stroke="#63b8ff" d="M89.74,-137.54C107.85,-143.63 129.28,-150.85 148.05,-157.16"/>
<polygon fill="#63b8ff" stroke="#63b8ff" points="90.97,-134.26 80.38,-134.39 88.74,-140.9 90.97,-134.26"/>
</a>
</g>
</g>
<!-- Node3 -->
<g id="Node000003" class="node">
<title>Node3</title>
<g id="a_Node000003"><a xlink:href="structicubaby_1_1is__unicode__char__type.html" target="_top" xlink:title="Checks whether the argument is one of the unicode character types.">
<polygon fill="white" stroke="#666666" points="246.88,-139.12 144.62,-139.12 144.62,-108.62 246.88,-108.62 246.88,-139.12"/>
<text text-anchor="start" x="152.62" y="-125.62" font-family="Helvetica,sans-Serif" font-size="10.00">icubaby::is_unicode</text>
<text text-anchor="middle" x="195.75" y="-114.38" font-family="Helvetica,sans-Serif" font-size="10.00">_char_type&lt; T &gt;</text>
</a>
</g>
</g>
<!-- Node0&#45;&gt;Node3 -->
<g id="edge7_Node000000_Node000003" class="edge">
<title>Node0&#45;&gt;Node3</title>
<g id="a_edge7_Node000000_Node000003"><a xlink:title=" ">
<path fill="none" stroke="#63b8ff" d="M107.76,-123.88C119.83,-123.88 132.44,-123.88 144.19,-123.88"/>
<polygon fill="#63b8ff" stroke="#63b8ff" points="107.92,-120.38 97.92,-123.88 107.92,-127.38 107.92,-120.38"/>
</a>
</g>
</g>
<!-- Node4 -->
<g id="Node000004" class="node">
<title>Node4</title>
<g id="a_Node000004"><a xlink:href="structicubaby_1_1is__unicode__input__type.html" target="_top" xlink:title="Checks whether the argument is one of the unicode data source types.">
<polygon fill="white" stroke="#666666" points="246.88,-90.12 144.62,-90.12 144.62,-59.62 246.88,-59.62 246.88,-90.12"/>
<text text-anchor="start" x="152.62" y="-76.62" font-family="Helvetica,sans-Serif" font-size="10.00">icubaby::is_unicode</text>
<text text-anchor="middle" x="195.75" y="-65.38" font-family="Helvetica,sans-Serif" font-size="10.00">_input_type&lt; T &gt;</text>
</a>
</g>
</g>
<!-- Node0&#45;&gt;Node4 -->
<g id="edge8_Node000000_Node000004" class="edge">
<title>Node0&#45;&gt;Node4</title>
<g id="a_edge8_Node000000_Node000004"><a xlink:title=" ">
<path fill="none" stroke="#63b8ff" d="M89.74,-110.21C107.85,-104.12 129.28,-96.9 148.05,-90.59"/>
<polygon fill="#63b8ff" stroke="#63b8ff" points="88.74,-106.85 80.38,-113.36 90.97,-113.49 88.74,-106.85"/>
</a>
</g>
</g>
<!-- Node5 -->
<g id="Node000005" class="node">
<title>Node5</title>
<g id="a_Node000005"><a xlink:href="structicubaby_1_1transcoder_3_01std_1_1byte_00_01_to_encoding_01_4_1_1is__nothrowable.html" target="_top" xlink:title="A helper for ensuring that a type will not cause variant_ to become valueless by exception.">
<polygon fill="white" stroke="#666666" points="255.88,-41.75 135.62,-41.75 135.62,0 255.88,0 255.88,-41.75"/>
<text text-anchor="start" x="143.62" y="-28.25" font-family="Helvetica,sans-Serif" font-size="10.00">icubaby::transcoder</text>
<text text-anchor="start" x="143.62" y="-17" font-family="Helvetica,sans-Serif" font-size="10.00">&lt; std::byte, ToEncoding</text>
<text text-anchor="middle" x="195.75" y="-5.75" font-family="Helvetica,sans-Serif" font-size="10.00"> &gt;::is_nothrowable&lt; T &gt;</text>
</a>
</g>
</g>
<!-- Node0&#45;&gt;Node5 -->
<g id="edge9_Node000000_Node000005" class="edge">
<title>Node0&#45;&gt;Node5</title>
<g id="a_edge9_Node000000_Node000005"><a xlink:title=" ">
<path fill="none" stroke="#63b8ff" d="M66.58,-105.98C82.65,-90.16 107.65,-67.14 132.25,-50.88 136.87,-47.82 141.85,-44.9 146.9,-42.15"/>
<polygon fill="#63b8ff" stroke="#63b8ff" points="64.3,-103.31 59.71,-112.86 69.25,-108.26 64.3,-103.31"/>
</a>
</g>
</g>
</g>
</svg>
